<svg width="400" height="475" xmlns="http://www.w3.org/2000/svg">

 <g>
  <title>Layer 1</title>
  <g id="svgg">
   <path fill-rule="evenodd" fill="#D1FFB4" d="m189.61,4.225c-32.632,16.653 -67.45,30.717 -95.732,38.671c-17.969,5.053 -37.293,8.81 -80.273,15.605c-9.2,1.455 -11.307,1.862 -12.738,2.46l-0.867,0.362l0.001,9.722c0.003,16.736 2.559,72.845 4.461,97.91c1.67,22.002 2.214,27.006 3.859,35.498c7.406,38.216 15.961,66.966 29.333,98.577c12.349,29.194 40.411,72.398 62.662,96.475c6.728,7.28 18.31,18.833 22.504,22.446c13.766,11.861 30.762,26.062 36.24,30.279c2.936,2.261 4.941,3.563 11.75,7.634c3.265,1.952 7.607,4.63 9.648,5.95c6.32,4.09 16.93,9.14 19.201,9.14c1.937,0 14.607,-5.956 19.76,-9.288c1.292,-0.836 5.801,-3.609 10.018,-6.164c11.091,-6.716 16.566,-10.938 36.735,-28.328c3.877,-3.344 8.608,-7.411 10.513,-9.04c7.36,-6.293 27.491,-27.298 33.421,-34.874c12.007,-15.339 22.239,-30.11 31.271,-45.145c16.482,-27.437 23.963,-43.642 34.541,-74.83c6.743,-19.877 15.323,-57.176 17.642,-76.685c2.486,-20.923 6.087,-90.052 6.262,-120.21l0.054,-9.388l-0.989,-0.208c-6.737,-1.416 -19.896,-3.767 -29.437,-5.258c-43.536,-6.805 -62.215,-11.388 -96.104,-23.582c-14.212,-5.113 -41.34,-17.121 -61.78,-27.345l-9.213,-4.609l-2.29,0.03l-2.289,0.03l-8.164,4.165m21.161,19.404c20.738,10.373 45.542,21.211 61.709,26.965c28.228,10.047 46.435,14.393 86.456,20.638c8.2,1.28 16.494,2.763 24.459,4.375l2.071,0.419l-0.165,7.689c-0.663,31.005 -2.998,79.489 -4.861,100.948c-1.534,17.671 -3.713,29.843 -9.725,54.338c-11.424,46.544 -28.491,83.257 -57.122,122.875c-12.572,17.396 -19.029,24.897 -34.964,40.616c-6.887,6.793 -26.292,23.461 -39.173,33.649c-3.193,2.525 -4.177,3.17 -12.864,8.439c-4.149,2.517 -8.422,5.149 -9.495,5.85c-3.135,2.046 -14.402,7.31 -16.311,7.619c-1.911,0.311 -11.28,-4.05 -17.821,-8.293c-2.059,-1.336 -5.692,-3.579 -8.073,-4.984c-8.343,-4.924 -10.22,-6.256 -19.25,-13.658c-4.472,-3.666 -22.142,-18.591 -26.267,-22.185c-4.417,-3.85 -14.751,-14.294 -23.154,-23.4c-9.374,-10.16 -24.43,-30.923 -34.44,-47.496c-5.571,-9.223 -6.595,-10.96 -9.992,-16.945c-14.28,-25.155 -27.198,-61.887 -35.408,-100.68c-3.835,-18.121 -3.855,-18.247 -4.98,-31.54c-1.765,-20.861 -2.285,-29.326 -3.827,-62.337c-1.174,-25.119 -1.325,-29.631 -1.349,-40.32l-0.022,-10.14l0.981,-0.323c1.098,-0.36 4.571,-0.97 15.098,-2.65c46.076,-7.353 59.578,-10.226 83.046,-17.672c21.995,-6.979 48.259,-17.978 74.53,-31.213l9.153,-4.611l1.794,-0.03l1.795,-0.03l8.171,4.087m-21.903,13.085c-33.38,16.901 -62.589,28.362 -88.93,34.895c-14.33,3.554 -22.302,5.063 -54.883,10.39c-14.195,2.321 -14.833,2.441 -16.076,3.031l-0.853,0.405l0.17,9.416c0.347,19.224 2.448,64.566 3.869,83.504c1.715,22.851 2.005,25.219 4.694,38.38c2.79,13.647 3.378,16.164 6.96,29.771c7.06,26.82 17.097,52.596 28.031,71.985c22.575,40.034 41.362,63.474 71.924,89.739c19.523,16.778 22.587,19.196 30.075,23.733c2.76,1.672 6.794,4.185 8.965,5.585c7.151,4.613 16.027,8.812 17.607,8.331c2.915,-0.887 13.094,-5.811 15.906,-7.694c1.224,-0.821 5.009,-3.196 8.41,-5.28c3.402,-2.083 6.685,-4.123 7.298,-4.533c4.343,-2.909 17.887,-14.282 35.261,-29.613c2.689,-2.373 11.288,-11.14 17.586,-17.93c14.189,-15.297 28.333,-35.592 43.788,-62.833c7.521,-13.254 14.196,-28.65 21.238,-48.979c6.887,-19.88 14.45,-52.46 16.682,-71.862c2.113,-18.357 5.148,-78.054 5.289,-104.013l0.044,-8.158l-7.792,-1.537c-4.286,-0.846 -11.744,-2.162 -16.574,-2.924c-37.187,-5.871 -54.33,-10.018 -80.767,-19.538c-14.65,-5.276 -39.426,-16.283 -57.684,-25.626c-9.671,-4.95 -7.498,-5.095 -20.238,1.355" id="path0"/>
  </g>
 </g>
</svg>