<svg width="400" height="203" xmlns="http://www.w3.org/2000/svg">

 <g>
  <title>Layer 1</title>
  <g id="svgg">
   <path fill-rule="evenodd" fill="#EEFF9F" d="m148.79036,0.10046c-0.401,0.04 -1.948,0.255 -3.437,0.478c-1.49,0.223 -3.693,0.501 -4.896,0.618c-1.834,0.178 -2.541,0.361 -4.375,1.132c-1.203,0.505 -2.469,0.984 -2.813,1.063l-0.625,0.143l0.593,-0.621c1.859,-1.947 -2.238,-2.94 -7.78,-1.886c-1.775,0.338 -2.963,0.438 -4.584,0.386c-4.67,-0.15 -5.105,-0.102 -8.218,0.901c-2.662,0.858 -2.944,0.911 -3.374,0.629c-0.714,-0.468 -2.58,-0.409 -3.664,0.116c-0.504,0.244 -1.118,0.444 -1.365,0.444c-0.474,0 -0.986,0.699 -0.769,1.05c0.07,0.114 0.019,0.54 -0.115,0.946c-0.338,1.023 0.018,1.355 2.187,2.046c2.764,0.881 3.087,1.284 1.138,1.424c-1.434,0.102 -1.579,0.074 -2.006,-0.386c-0.253,-0.274 -0.564,-0.497 -0.69,-0.497c-0.126,0 -0.574,-0.234 -0.996,-0.521c-2.478,-1.684 -5.2,0.93 -3.624,3.48c0.427,0.692 0.428,0.708 0.033,0.954c-1.481,0.925 -1.945,4.708 -0.609,4.975c1.15,0.23 0.025,1.382 -1.585,1.624c-0.539,0.08 -1.108,0.196 -1.264,0.256c-0.219,0.084 -0.255,-0.04 -0.158,-0.53c0.178,-0.887 -0.052,-1.645 -0.673,-2.221c-0.821,-0.76 -0.084,-1.647 2.655,-3.191c1.447,-0.816 1.642,-1.044 1.413,-1.649c-0.368,-0.973 -2.924,-0.594 -4.455,0.66c-0.462,0.379 -1.5,1.021 -2.307,1.427c-1.667,0.84 -2.723,1.811 -2.914,2.682c-0.072,0.328 -0.159,0.596 -0.193,0.596c-0.033,0 -0.46,-0.141 -0.947,-0.313c-1.939,-0.684 -2.389,-0.465 -2.547,1.244c-0.082,0.886 -0.949,1.358 -1.729,0.941l-0.559,-0.299l0.449,-0.299c0.628,-0.416 1.053,-1.551 1.054,-2.81c0,-0.962 0.064,-1.11 0.639,-1.485c1.796,-1.173 1.255,-1.98 -1.324,-1.976c-2.013,0.003 -2.281,0.076 -2.503,0.678c-0.125,0.337 -0.236,0.313 -1.252,-0.26c-1.25,-0.706 -2.114,-0.797 -2.681,-0.284c-0.304,0.275 -0.483,0.299 -0.88,0.118c-0.849,-0.387 -4.683,-0.734 -6.467,-0.586c-3.249,0.271 -4.776,1.455 -4.656,3.612c0.071,1.284 0.229,1.24 -3.109,0.864c-1.926,-0.216 -2.154,-0.199 -4.114,0.313l-2.076,0.543l-1.362,-0.659c-1.84,-0.89 -2.7,-0.87 -4.439,0.102c-1.754,0.981 -2.349,0.974 -3.852,-0.05c-2.691,-1.832 -7.396,-2.173 -10.049,-0.729l-0.952,0.518l-1.016,-0.449c-2.263,-1.002 -5.118,-0.335 -8.45,1.974c-4.451,3.084 -4.101,2.903 -5.854,3.031c-1.326,0.098 -1.713,0.21 -2.154,0.624l-0.536,0.504l-1.509,-0.353c-2.489,-0.582 -3.671,-0.426 -4.78,0.632c-1.853,1.768 0.318,4.794 2.573,3.587c0.71,-0.38 0.713,-0.006 0.006,0.7c-0.661,0.661 -0.699,0.671 -2.698,0.682c-3.547,0.021 -6.086,2.683 -4.556,4.776c0.414,0.566 -1.503,2.322 -3.811,3.49c-2.71,1.372 -3.889,2.869 -2.743,3.483c0.683,0.365 3.185,-0.849 4.309,-2.092c0.219,-0.243 1.29,-0.858 2.378,-1.367c1.089,-0.509 2.269,-1.205 2.622,-1.547l0.642,-0.623l1.202,0.633c1.926,1.013 2.692,0.823 6.126,-1.514c1.885,-1.284 2.698,-1.583 4.327,-1.595c0.765,-0.006 2.55,-0.334 4.479,-0.823c6.631,-1.683 8.106,-1.172 6.053,2.096c-1.768,2.814 -1.562,5.333 0.49,6.01c0.809,0.267 0.815,0.277 0.506,0.855c-0.215,0.401 -0.236,0.398 -0.85,-0.118c-1.405,-1.183 -2.888,0.089 -2.888,2.477c0,1.442 0.8,1.686 2.657,0.807c0.544,-0.257 0.74,-0.269 0.99,-0.062c0.507,0.42 0.372,0.832 -0.272,0.832c-1.328,0 -1.508,1.491 -0.357,2.939c1.4,1.761 0.639,4.386 -2.532,8.738c-2.851,3.912 -3.125,5.336 -1.639,8.518c0.701,1.502 1.003,2.479 1.228,3.972c0.165,1.088 0.445,2.541 0.624,3.229c0.179,0.687 0.414,2.528 0.524,4.09c0.213,3.043 0.238,3.121 1.822,5.745c0.713,1.18 0.953,1.826 1.123,3.02c0.452,3.169 2.443,4.795 3.461,2.825c0.595,-1.15 0.31,-2.498 -1.119,-5.299c-0.995,-1.95 -1.306,-2.786 -1.424,-3.83c-0.152,-1.341 -0.312,-1.602 -1.626,-2.653c-0.236,-0.189 -0.335,-0.612 -0.335,-1.432c0,-1.94 0.731,-1.148 1.783,1.933c1.04,3.043 2.441,5.84 4.163,8.312c1.617,2.322 2.179,3.89 2.179,6.086c0,3.494 1.105,4.668 5.316,5.65c1.034,0.241 2.691,0.72 3.684,1.064c0.993,0.344 2.21,0.687 2.704,0.762c1.177,0.178 1.491,0.48 2.025,1.945c0.543,1.489 0.99,1.807 2.976,2.114c1.8,0.278 2.622,0.661 4.857,2.261c2.253,1.614 5.477,3.486 6.288,3.652c0.409,0.084 0.871,0.409 1.208,0.852c0.661,0.866 1.475,0.939 3.337,0.299c0.667,-0.229 1.237,-0.417 1.268,-0.417c0.032,0 -0.194,0.445 -0.501,0.99c-0.541,0.959 -0.558,1.092 -0.558,4.323c0,3.875 0.108,3.593 -2.249,5.855c-3.678,3.529 -3.381,9.197 0.73,13.936c1.068,1.231 1.849,2.456 2.993,4.692c2.141,4.185 3.184,5.311 6.075,6.553c2.58,1.109 3.438,1.734 4.013,2.921c0.679,1.402 1.806,9.311 2.08,14.584c0.124,2.406 0.31,5.219 0.412,6.25c0.102,1.031 0.243,3.375 0.314,5.209c0.071,1.833 0.313,4.598 0.538,6.145c0.225,1.547 0.484,4.136 0.576,5.754c0.162,2.887 0.18,2.965 0.93,4.224c0.55,0.924 0.859,1.792 1.104,3.101c0.494,2.639 1.491,4.239 2.823,4.531c0.328,0.072 0.861,0.474 1.206,0.91c0.621,0.784 1.183,1.099 3.398,1.906c0.936,0.34 1.407,0.685 2.187,1.6c2.33,2.73 6.086,2.95 7.444,0.436c0.527,-0.975 0.356,-1.188 -1.833,-2.289c-3.318,-1.668 -4.621,-3.644 -4.58,-6.942c0.033,-2.658 -0.611,-3.856 -2.073,-3.856c-0.157,0 -0.49,-0.217 -0.739,-0.482l-0.453,-0.482l0.651,-0.611c1.539,-1.446 1.761,-2.979 0.716,-4.948c-0.877,-1.653 -0.793,-1.815 1.237,-2.418c1.96,-0.582 2.604,-1.159 2.604,-2.333c0,-0.732 0.318,-0.824 1.905,-0.553c4.461,0.761 6.54,-3.046 2.783,-5.095l-1.042,-0.568l1.416,-0.005c2.783,-0.009 3.3,-0.721 4.419,-6.086c0.195,-0.937 0.734,-2.408 1.298,-3.542c0.756,-1.519 0.985,-2.222 1.055,-3.245c0.116,-1.688 0.468,-1.975 2.985,-2.438c4.825,-0.887 6.014,-2.791 6.014,-9.626c0,-4.653 -0.031,-4.567 3.334,-9.338c4.613,-6.544 1.638,-13.581 -6.039,-14.283c-3.445,-0.316 -4.069,-0.562 -5.392,-2.127c-0.732,-0.866 -2.07,-1.712 -3.361,-2.125c-2.756,-0.882 -3.306,-1.491 -3.823,-4.24c-0.875,-4.649 -3.182,-6.833 -7.754,-7.341c-2.556,-0.284 -2.996,-0.578 -4.438,-2.965c-2.3,-3.808 -3.824,-4.408 -7.527,-2.961c-2.318,0.906 -2.28,0.907 -3.988,-0.107c-2.13,-1.266 -3.472,-1.302 -3.927,-0.105c-0.158,0.415 -0.343,0.524 -0.893,0.524c-1.103,0 -2.457,1.008 -3.538,2.635l-0.955,1.435l-2.713,0.063c-4.901,0.115 -6.043,-1.291 -5.135,-6.32c0.166,-0.917 0.305,-1.929 0.309,-2.25c0.017,-1.365 -2.524,-2.523 -4.187,-1.907c-2.565,0.95 -2.857,0.482 -1.434,-2.296c1.234,-2.41 1.418,-3.953 0.596,-4.999c-0.809,-1.029 -1.629,-0.679 -3.749,1.599l-1.801,1.936l-2.261,0.127c-3.118,0.174 -2.955,0.342 -3.508,-3.606c-0.715,-5.107 -0.465,-6.53 1.54,-8.748c1.706,-1.887 2.621,-2.228 6.295,-2.35c3.571,-0.118 3.92,-0.223 5.253,-1.582c1.207,-1.23 0.848,-1.21 3.541,-0.199c1.215,0.457 2.587,0.891 3.049,0.965l0.84,0.134l-0.047,3.359c-0.055,3.87 0.063,4.296 1.183,4.296c2.096,0 2.468,-1.404 1.763,-6.657l-0.472,-3.52l0.512,-1.005c0.438,-0.859 0.876,-1.25 3.005,-2.68c1.992,-1.339 2.765,-2.009 3.847,-3.334c2.041,-2.5 2.904,-3.273 4.277,-3.829c1.59,-0.643 2.104,-1.048 3.022,-2.376c0.41,-0.593 1.022,-1.25 1.359,-1.46c0.337,-0.21 1.101,-0.678 1.697,-1.041c0.596,-0.363 2.261,-1.759 3.701,-3.102c2.915,-2.721 3.586,-3.21 3.32,-2.42c-0.739,2.199 1.278,2.42 4.179,0.457c0.577,-0.391 1.659,-0.899 2.404,-1.13c1.688,-0.523 2.869,-1.287 3.039,-1.965c0.25,-0.995 0.038,-1.125 -1.936,-1.19c-1.827,-0.06 -1.833,-0.062 -1.898,-0.633c-0.062,-0.538 -0.017,-0.573 0.742,-0.573c1.463,0 2.472,-1.556 1.513,-2.332c-0.649,-0.526 -0.665,-0.522 2.342,-0.692c2.763,-0.158 3.044,-0.104 2.079,0.395c-1.207,0.624 -2.548,2.442 -2.548,3.454c0,1.213 1.383,1.496 4.514,0.92c0.576,-0.106 0.669,-0.059 0.729,0.369c0.121,0.853 2.259,0.832 3.121,-0.03c0.856,-0.856 0.719,-1.796 -0.591,-4.062l-0.963,-1.666l0.255,-1.147c0.692,-3.126 0.505,-4.044 -1.186,-5.796l-1.143,-1.184l-0.144,-1.826c-0.239,-3.024 -1.699,-4.016 -3.813,-2.589c-0.6,0.405 -1.491,0.799 -1.979,0.875l-0.887,0.14l0.215,-0.567c0.288,-0.758 0.091,-1.286 -0.618,-1.653c-0.912,-0.472 -2.803,-2.973 -2.348,-3.107c1.68,-0.493 1.792,-0.457 3.199,1.017c1.965,2.06 3.366,2.429 5.135,1.353c0.87,-0.529 0.846,-0.945 -0.111,-1.933l-0.781,-0.808l0.625,0.04c1.396,0.088 1.817,-0.019 2.412,-0.614c0.707,-0.707 0.812,-1.716 0.261,-2.503c-0.341,-0.487 -0.338,-0.494 0.156,-0.345c2.033,0.612 3.39,0.517 5.118,-0.36c3.001,-1.522 1.799,-3.451 -2.16,-3.469c-1.082,-0.005 -1.088,-0.009 -0.886,-0.54c0.36,-0.947 0.236,-1.322 -0.636,-1.915c-0.462,-0.314 -1.628,-1.195 -2.59,-1.957c-1.248,-0.987 -1.994,-1.426 -2.598,-1.528c-1.235,-0.209 -1.23,-0.94 0.006,-0.94c0.796,0 0.971,-0.119 2.552,-1.736c1.951,-1.994 2.494,-2.246 7.887,-3.667l3.064,-0.808l-0.121,0.605c-0.066,0.333 -0.016,0.731 0.113,0.886c0.194,0.234 -0.114,0.264 -1.828,0.182c-3.574,-0.172 -5.229,0.416 -5.229,1.857c0,1.824 3.15,2.545 7.604,1.74c3.201,-0.578 3.705,-0.336 4.033,1.943c0.129,0.895 0.093,1.018 -0.435,1.464c-0.765,0.646 -0.787,1.751 -0.056,2.742c0.823,1.116 0.712,1.945 -0.365,2.71c-1.931,1.372 -2.332,2.209 -1.841,3.844c0.139,0.463 0.332,1.791 0.429,2.952c0.516,6.153 6.207,6.506 9.4,0.583c1.296,-2.405 1.156,-2.308 3.523,-2.434c2.388,-0.128 2.881,-0.302 9.271,-3.281c5.586,-2.604 7.402,-3.296 9.132,-3.477c1.639,-0.171 2.269,-0.76 3.686,-3.446c0.98,-1.859 1.134,-2.045 1.854,-2.239c1.49,-0.401 2.117,-1.015 2.614,-2.561c0.721,-2.238 1.633,-3.02 4.901,-4.205c1.666,-0.604 1.771,-0.677 1.771,-1.244c0,-1.318 -3.926,-2.295 -6.042,-1.504c-0.797,0.298 -0.856,0.29 -1.354,-0.166c-1.179,-1.081 -1.558,-1.195 -4.948,-1.485c-2.92,-0.25 -11.251,-0.35 -13.177,-0.158m12.228,1.531c3.652,0.29 3.936,0.351 4.704,1.018c1.18,1.025 1.43,1.089 2.784,0.709c2.608,-0.733 3.684,-0.308 1.638,0.647c-2.112,0.985 -3.619,2.72 -3.965,4.564c-0.159,0.847 -0.544,1.138 -2.138,1.613c-0.851,0.254 -0.945,0.366 -1.941,2.305c-1.469,2.86 -1.613,3.014 -2.972,3.173c-1.698,0.2 -4.198,1.155 -9.419,3.596c-5.933,2.776 -7.174,3.205 -9.258,3.205c-2.182,0 -2.696,0.367 -4.07,2.902c-2.742,5.058 -6.752,4.908 -6.757,-0.252c0,-0.782 -0.14,-1.747 -0.313,-2.161c-0.492,-1.178 -0.401,-1.654 0.444,-2.303c2.199,-1.691 2.16,-1.633 2.16,-3.218c0,-1.275 -0.062,-1.503 -0.521,-1.929c-0.502,-0.466 -0.687,-0.952 -0.364,-0.959c1.241,-0.025 1.137,-3.594 -0.157,-5.381c-0.738,-1.019 -1.452,-1.105 -4.583,-0.553c-2.167,0.382 -4.681,0.389 -5.521,0.016l-0.625,-0.278l0.625,-0.254c0.423,-0.173 1.419,-0.224 3.086,-0.159c2.937,0.114 4.23,-0.088 4.911,-0.769c0.617,-0.617 0.467,-1.124 -0.384,-1.294c-1.107,-0.221 -0.449,-0.491 1.202,-0.493c2.025,-0.002 4.567,-0.607 7.108,-1.692c1.567,-0.67 2.394,-0.888 3.966,-1.046c1.615,-0.163 5.227,-0.633 8.34,-1.086c1.184,-0.172 9.545,-0.117 12.02,0.079m-29.52,0.619c0,0.227 -0.602,0.36 -3.358,0.742c-7.035,0.973 -12.271,2.902 -14.379,5.297c-1.55,1.761 -1.762,1.735 -4.534,-0.549c-0.701,-0.577 -1.61,-1.052 -2.725,-1.424c-1.535,-0.511 -2.16,-1.12 -0.903,-0.88c0.874,0.167 3.37,-0.388 6.837,-1.52c3.573,-1.167 3.865,-1.204 8.229,-1.036c1.609,0.062 2.904,-0.036 4.896,-0.371c3.701,-0.622 5.937,-0.72 5.937,-0.259m94.784,0.471c-1.967,0.992 -0.624,2.847 2.072,2.86c1.048,0.006 5.397,-1.159 5.822,-1.559c0.5,-0.469 0.099,-1.144 -0.679,-1.144c-0.376,0 -1.143,-0.14 -1.705,-0.311c-1.623,-0.492 -4.381,-0.415 -5.51,0.154m-5.2,0.103c-0.979,0.116 -1.459,0.59 -1.459,1.44c0,1.518 1.603,1.967 3.613,1.012c2.233,-1.061 0.713,-2.792 -2.154,-2.452m37.358,0.093c-2.227,1.077 -0.362,3.502 2.693,3.502c1.262,0 1.618,0.074 1.911,0.398c1.096,1.211 3.246,0.461 3.246,-1.133c0,-1.131 -0.716,-1.759 -1.854,-1.624c-0.888,0.105 -1.166,0.03 -2.357,-0.636c-1.417,-0.792 -2.683,-0.969 -3.639,-0.507m-61.837,1.002c-0.344,0.088 -1.345,0.17 -2.225,0.184c-2.053,0.032 -2.351,0.278 -2.193,1.813c0.506,4.901 5.351,6.883 6.724,2.75c0.502,-1.511 0.991,-1.657 2.016,-0.602c1.524,1.571 3.049,0.912 2.167,-0.937c-0.28,-0.587 -0.287,-0.708 -0.044,-0.708c1.014,0 1.984,-1.799 1.325,-2.458c-0.282,-0.283 -6.689,-0.317 -7.77,-0.042m31.979,0c0,0.115 -0.229,0.209 -0.509,0.209c-0.28,0 -0.566,-0.094 -0.637,-0.209c-0.075,-0.121 0.137,-0.208 0.508,-0.208c0.351,0 0.638,0.094 0.638,0.208m-134.04,0.677c-0.752,0.677 -0.814,1.97 -0.127,2.657l0.417,0.416l-0.842,0c-0.463,0 -1.22,-0.193 -1.683,-0.429c-1.018,-0.519 -1.337,-0.34 -1.541,0.865c-0.5,2.958 5.888,4.052 6.476,1.109c0.088,-0.44 0.027,-0.744 -0.192,-0.964c-0.289,-0.288 -0.192,-0.347 0.966,-0.593c1.268,-0.269 2.236,-0.916 2.229,-1.489c-0.017,-1.413 -4.504,-2.65 -5.703,-1.572m166.394,-0.104l0.667,0.365l-0.901,0.065c-0.85,0.061 -1.495,-0.203 -1.495,-0.612c0,-0.31 1.027,-0.202 1.729,0.182m-173.396,0.055c-0.286,0.094 -0.866,0.229 -1.287,0.299c-1.762,0.294 -2.303,1.769 -1.037,2.826c0.639,0.533 0.649,0.565 0.277,0.902c-0.364,0.329 -0.477,0.287 -2.088,-0.792c-3.354,-2.244 -5.865,-1.9 -5.865,0.805c0,2.07 3.3,2.943 9.271,2.451c0.458,-0.038 1.025,-0.008 1.26,0.066c1.103,0.346 1.908,-1.603 1.26,-3.051c-0.109,-0.244 -0.034,-0.384 0.254,-0.476c1.493,-0.474 2.021,-2.216 0.82,-2.703c-0.943,-0.382 -2.246,-0.531 -2.865,-0.327m112.083,0.822c0,0.21 -0.167,0.374 -1.062,1.043c-0.318,0.238 -0.731,0.925 -1,1.663c-0.664,1.822 -1.613,1.942 -2.821,0.358c-0.472,-0.619 -1.158,-2.197 -1.158,-2.665c0,-0.1 1.072,-0.182 2.383,-0.182c1.365,0 2.439,-0.089 2.513,-0.208c0.164,-0.267 1.145,-0.274 1.145,-0.009m-102.395,0.636l0.833,0.134l-0.754,0.158c-1.058,0.222 -1.729,0.087 -1.815,-0.367c-0.061,-0.319 0.009,-0.357 0.414,-0.222c0.269,0.089 0.863,0.223 1.322,0.297m-8.736,0.391c-0.162,0.262 -1.518,0.487 -2.006,0.332c-0.734,-0.233 -0.199,-0.517 0.974,-0.517c0.631,0 1.095,0.083 1.032,0.185m180.298,-0.008c-1.613,0.161 -1.784,0.254 -1.944,1.052c-0.148,0.744 -0.355,0.816 -2.981,1.053c-1.486,0.133 -2.457,0.352 -3.512,0.793c-0.803,0.334 -1.834,0.724 -2.292,0.865c-2.103,0.649 -2.401,1.005 -1.66,1.985c0.497,0.657 0.362,0.739 -0.684,0.416c-2.936,-0.907 -3.678,-0.853 -4.164,0.302c-0.292,0.695 -0.335,0.722 -0.55,0.348c-0.695,-1.202 -1.119,-1.416 -2.636,-1.33c-2.398,0.135 -3.346,1.154 -3.003,3.227l0.202,1.216l-2.19,-0.139c-1.205,-0.077 -2.659,-0.279 -3.232,-0.448c-3.317,-0.982 -4.567,-0.526 -3.757,1.368c0.19,0.445 -0.135,0.46 -1.751,0.083c-1.335,-0.312 -1.527,-0.596 -0.589,-0.872c1.099,-0.324 0.958,-1.554 -0.178,-1.554c-0.421,0 -0.496,-0.103 -0.496,-0.683c0,-1.429 1.206,-2.274 4.649,-3.261c6.695,-1.917 6.907,-4.416 0.279,-3.285c-3.926,0.67 -5.029,1.118 -5.689,2.312c-0.33,0.597 -0.801,0.997 -1.781,1.515c-2.792,1.474 -2.519,5.068 0.386,5.068c0.701,0 0.604,0.367 -0.187,0.704c-0.621,0.264 -0.754,0.247 -1.589,-0.208c-1.381,-0.751 -2.734,-0.569 -2.734,0.367c0,0.33 -0.087,0.396 -0.365,0.281c-1.85,-0.763 -3.177,-0.325 -3.177,1.051c0,0.369 0.145,0.791 0.322,0.939c0.258,0.213 0.268,0.302 0.052,0.439c-0.385,0.244 -1.049,0.218 -0.892,-0.035c0.218,-0.353 -0.289,-1.56 -0.893,-2.126c-1.259,-1.179 -2.869,-1.659 -6.506,-1.937c-0.974,-0.074 -2.942,-0.382 -4.375,-0.684c-3.905,-0.823 -6.478,-0.77 -10.416,0.212c-6.28,1.566 -8.001,2.623 -6.39,3.928c0.43,0.348 0.429,0.35 -0.211,0.681c-0.905,0.468 -1.638,1.411 -2.042,2.629c-0.457,1.375 -1.131,1.828 -3.418,2.296c-2.635,0.54 -3.198,0.941 -3.876,2.763c-0.912,2.448 0.307,4.325 2.809,4.325l0.844,0l-0.457,0.886c-0.493,0.954 -0.617,2.527 -0.319,4.033l0.17,0.855l-1.165,0.473c-0.884,0.359 -1.448,0.796 -2.34,1.811c-0.646,0.736 -1.452,1.536 -1.791,1.777l-0.617,0.44l0.362,-0.553c0.751,-1.147 -0.082,-2.701 -1.872,-3.493c-0.619,-0.274 -0.964,-0.568 -1.023,-0.873c-0.818,-4.213 -2.144,-7.043 -3.284,-7.007c-1.388,0.044 -2.526,1.371 -2.551,2.975l-0.017,1.131l-0.963,0.094c-1.197,0.116 -2.163,0.782 -2.505,1.728c-0.192,0.532 -0.385,0.723 -0.727,0.723c-1.429,0 -2.207,1.007 -1.646,2.13c0.275,0.552 0.276,0.676 0.003,1.065c-1.305,1.864 1.426,3.938 2.943,2.235c0.306,-0.343 0.895,-0.732 1.309,-0.863c0.414,-0.131 0.969,-0.374 1.233,-0.54l0.481,-0.302l-0.324,0.627c-0.179,0.345 -0.325,0.761 -0.325,0.925c0,0.164 -0.14,0.414 -0.312,0.557c-1.293,1.072 0.61,1.688 3.195,1.033c0.58,-0.147 0.674,-0.124 0.573,0.141c-0.067,0.175 -0.122,0.53 -0.122,0.789c0,0.4 -0.171,0.509 -1.147,0.727c-2.226,0.498 -1.908,3.166 0.436,3.664c0.972,0.207 1.214,0.412 1.367,1.165c0.217,1.059 -0.025,2.736 -0.375,2.602c-1.223,-0.47 -6.173,-1.019 -7.156,-0.794c-0.835,0.191 -0.715,-0.18 -1.558,4.841c-1.21,7.217 -0.799,8.014 3.224,6.248c1.682,-0.738 1.8,-0.757 1.25,-0.208c-0.229,0.229 -0.478,0.417 -0.553,0.417c-0.076,0 -0.615,0.364 -1.198,0.808c-0.584,0.445 -1.342,0.953 -1.686,1.128c-1.52,0.774 -2.57,2.624 -3.341,5.886c-0.883,3.741 -1.474,4.61 -5.305,7.803c-5.201,4.335 -5.893,6.134 -4.608,11.979c0.352,1.604 0.93,4.826 1.284,7.159c1.053,6.945 2.077,9.752 4.491,12.312c3.19,3.382 5.677,3.801 11.321,1.908c5.598,-1.877 7.374,-1.982 11.22,-0.661c4.24,1.455 5.22,3.035 6.819,10.996c1.073,5.339 1.524,6.534 3.204,8.491c1.871,2.179 1.845,3.613 -0.158,8.783c-2.152,5.556 -2.036,7.339 0.82,12.582c4.137,7.596 3.736,6.601 4.448,11.047c1.217,7.604 2.846,8.566 12.305,7.263c4.285,-0.59 8.417,-4.752 9.459,-9.526c0.522,-2.392 0.546,-2.434 2.01,-3.466c1.618,-1.14 1.836,-1.767 1.676,-4.817c-0.196,-3.719 0.431,-5.247 3.528,-8.596c4.48,-4.845 5.074,-6.921 3.553,-12.431c-1.232,-4.462 -1.03,-5.531 2.019,-10.732c5.214,-8.891 6.678,-10.946 10.464,-14.687c3.796,-3.752 4.478,-5.354 2.937,-6.896c-0.899,-0.898 -1.899,-0.936 -4.673,-0.175c-2.819,0.772 -2.758,0.55 0.282,-1.043c5.121,-2.684 5.616,-3.027 7.825,-5.431c0.525,-0.571 1.757,-1.763 2.739,-2.648c3.138,-2.829 3.547,-5.179 1.222,-7.02c-1.501,-1.189 -2.124,-3.091 -0.656,-2.005c2.195,1.624 5.122,1.87 7.968,0.67c2.558,-1.08 2.769,-0.996 3.814,1.527c1.144,2.762 2.008,3.5 3.809,3.253c0.73,-0.1 0.991,-0.053 1.185,0.213c0.137,0.187 0.534,0.351 0.881,0.364l0.632,0.024l0.139,1.965c0.182,2.592 0.553,3.373 2.365,4.984c1.775,1.577 1.862,1.787 2.003,4.822c0.256,5.493 1.42,7.459 4.294,7.252l1.254,-0.091l0,1.331c0,2.486 2.417,3.58 4.061,1.837c1.858,-1.971 0.933,-5.019 -1.821,-6.002c-0.086,-0.031 0.031,-0.549 0.26,-1.152c0.501,-1.318 0.522,-2.187 0.093,-3.842c-0.606,-2.341 -0.445,-2.806 1.418,-4.084c1.931,-1.325 4.487,-4.288 5.37,-6.223c0.752,-1.646 1.129,-1.861 2.32,-1.32c1.085,0.492 2.214,0.53 3.227,0.106c0.411,-0.171 0.769,-0.312 0.796,-0.312c0.2,0 0.727,2.96 0.798,4.486c0.151,3.253 1.856,5.006 3.861,3.969c0.685,-0.354 2.1,-0.494 2.5,-0.246c0.139,0.085 0.242,0.666 0.242,1.358c0,2.868 0.631,4.482 2.617,6.698l1.341,1.495l0,1.951c0,1.938 0.707,4.864 1.592,6.591c0.394,0.767 0.207,0.728 -1.495,-0.317c-1.47,-0.902 -1.666,-1.153 -2.506,-3.22c-0.794,-1.953 -2.799,-2.108 -2.799,-0.217c0,1.317 0.519,2.174 2.47,4.077l1.856,1.813l0.12,1.4c0.149,1.733 0.541,2.518 1.621,3.244c1.954,1.313 2.206,1.633 2.879,3.653c1.03,3.091 2.067,4.155 4.048,4.155c1.403,0 1.843,-0.725 1.76,-2.898c-0.074,-1.94 -0.147,-1.867 1.494,-1.515c1.264,0.271 1.669,0.05 1.669,-0.914l0,-0.636l0.468,0.422c0.697,0.628 0.776,0.656 2.838,1.012c1.09,0.188 2.495,0.605 3.289,0.977c3.255,1.523 5.157,0.338 4.673,-2.912c-0.208,-1.402 -0.194,-1.628 0.135,-2.088c1.158,-1.623 1.121,-1.484 0.989,-3.692c-0.141,-2.383 0.142,-3.255 1.254,-3.858c1.308,-0.711 0.728,-1.703 -1.98,-3.391c-1.385,-0.863 -3.125,-0.457 -3.125,0.73c0,0.213 -0.133,0.595 -0.295,0.849c-0.163,0.254 -0.491,1.064 -0.73,1.8c-0.572,1.762 -0.763,1.941 -3.005,2.812c-3.459,1.344 -5.32,3.342 -5.082,5.457c0.099,0.876 0.083,0.914 -0.257,0.606c-0.199,-0.18 -1.268,-0.499 -2.375,-0.709c-2.384,-0.451 -2.26,-0.357 -2.378,-1.789c-0.083,-0.998 -0.028,-1.217 0.451,-1.786c0.69,-0.82 0.684,-1.055 -0.07,-2.648c-0.339,-0.717 -0.81,-1.955 -1.048,-2.752c-0.464,-1.558 -1.08,-2.448 -2.154,-3.112c-1.403,-0.867 -3.413,-7.02 -2.481,-7.595c0.32,-0.198 1.138,0.441 1.58,1.236c0.302,0.542 0.79,0.991 1.453,1.337c1.374,0.717 1.926,1.617 1.598,2.608c-0.664,2.014 2.007,1.733 3.156,-0.332c0.41,-0.737 0.742,-0.998 2.002,-1.574c3.581,-1.638 3.176,-5.802 -1.051,-10.806c-1.919,-2.272 -1.799,-2.081 -1.084,-1.723c2.666,1.336 3.929,0.546 4.197,-2.627l0.13,-1.539l0.938,-0.128c0.516,-0.071 1.331,-0.129 1.81,-0.129c2.16,0 4.444,-1.638 7.073,-5.072c3.594,-4.696 3.164,-9.496 -1.339,-14.928c-0.829,-0.999 -2.08,-2.896 -2.08,-3.152c0,-0.085 0.304,-0.184 0.677,-0.22c0.975,-0.094 1.068,-0.986 0.173,-1.648c-0.737,-0.545 -0.553,-1.021 0.393,-1.021c0.643,0 1.025,0.365 1.629,1.562c0.231,0.459 0.664,1.061 0.962,1.339c0.297,0.277 0.541,0.614 0.541,0.748c0,1.719 2.347,4.141 3.889,4.013c2.32,-0.193 4.405,-4.322 2.692,-5.332c-0.461,-0.272 -1.057,-0.948 -1.533,-1.738c-0.427,-0.711 -1.137,-1.643 -1.575,-2.071c-1.432,-1.398 -0.692,-2.233 2.002,-2.26c2.861,-0.028 3.24,-0.645 3.524,-5.74c0.108,-1.948 0.261,-4 0.338,-4.559l0.142,-1.018l1.082,1.977c0.595,1.088 1.147,2.249 1.227,2.58c0.213,0.889 0.475,1.124 1.258,1.124c1.487,0 1.896,-1.137 1.01,-2.805c-0.411,-0.773 -0.474,-1.056 -0.286,-1.283c0.444,-0.534 0.075,-1.897 -0.828,-3.056c-0.464,-0.597 -1.276,-1.648 -1.804,-2.335c-2.222,-2.894 -3.492,-3.841 -5.168,-3.85c-0.619,-0.004 -0.825,0.087 -0.906,0.398c-0.095,0.364 -0.175,0.334 -0.81,-0.301c-1.039,-1.039 -2.652,-1.395 -4.248,-0.937c-0.849,0.244 -1.704,-0.422 -2.523,-1.966c-1.205,-2.271 0.859,-3.154 5.369,-2.296c2.901,0.552 4.363,0.505 4.921,-0.156c0.412,-0.488 0.635,-0.55 2.324,-0.644c2.738,-0.152 3.391,-1.028 2.331,-3.122c-0.269,-0.531 -0.386,-0.903 -0.261,-0.826c0.126,0.077 0.546,0.355 0.935,0.618c1.362,0.921 2.939,0.395 2.939,-0.981c0,-0.973 0.52,-0.762 1.128,0.458c0.86,1.727 0.672,3.705 -0.354,3.712c-0.896,0.006 -1.399,0.801 -1.399,2.211c0,1.397 0.823,2.37 3.238,3.831c2.132,1.29 2.188,1.357 3.314,3.963c1.336,3.094 2.523,3.918 3.027,2.104c0.28,-1.01 0.27,-5.754 -0.015,-6.781c-0.189,-0.679 -0.173,-0.844 0.096,-0.995c1.053,-0.589 0.473,-2.85 -1.252,-4.883c-1.369,-1.614 -1.375,-1.537 0.108,-1.537c0.842,0 1.307,-0.099 1.488,-0.316c0.183,-0.221 0.465,-0.279 0.937,-0.19c0.725,0.136 1.557,-0.199 2.757,-1.112c0.373,-0.283 1.17,-0.769 1.771,-1.08c1.395,-0.721 1.418,-0.929 0.292,-2.65c-1.719,-2.627 -0.872,-3.169 2.71,-1.735c4.272,1.711 4.243,-0.912 -0.033,-2.981c-1.624,-0.786 -2.793,-1.133 -6.458,-1.917c-1.375,-0.294 -3.774,-0.853 -5.33,-1.242c-1.599,-0.399 -3.946,-0.81 -5.392,-0.943c-2.284,-0.21 -3.607,-0.253 -7.716,-0.251c-0.63,0 -2.216,0.207 -3.525,0.46c-2.739,0.53 -3.393,0.485 -6.267,-0.431c-1.267,-0.405 -2.732,-0.694 -4.074,-0.805c-1.802,-0.15 -2.457,-0.32 -4.687,-1.216c-3.567,-1.434 -4.805,-1.513 -9.053,-0.575c-0.351,0.077 -0.418,-0.015 -0.416,-0.576c0.001,-0.733 0.279,-0.628 -2.926,-1.099c-0.567,-0.084 -0.635,-0.171 -0.635,-0.811c0,-1.838 -2.747,-2.812 -4.873,-1.728c-1.678,0.856 -1.578,2.436 0.197,3.092c0.826,0.305 0.877,0.359 0.46,0.491c-0.295,0.094 -0.513,0.373 -0.589,0.753c-0.09,0.45 -0.233,0.598 -0.564,0.58c-0.244,-0.013 -0.913,0.044 -1.485,0.125c-0.9,0.128 -1.184,0.071 -2.084,-0.413c-2.634,-1.417 -3.097,-1.606 -4.454,-1.816c-1.155,-0.179 -1.969,-0.154 -4.045,0.123c-3.338,0.445 -3.894,0.437 -5.776,-0.087c-1.178,-0.328 -2.007,-0.417 -3.397,-0.365c-1.298,0.049 -1.734,0.008 -1.481,-0.139c0.197,-0.114 0.595,-0.404 0.883,-0.643l0.525,-0.435l-0.398,-0.815c-0.461,-0.943 -1.62,-1.665 -3.404,-2.121c-1.28,-0.328 -9.309,-0.525 -11.682,-0.288m-187.89,1.578c0.386,0.164 1.171,0.642 1.744,1.063l1.042,0.766l-1.473,-0.123c-2.57,-0.215 -3.699,-0.856 -2.998,-1.7c0.317,-0.382 0.792,-0.383 1.685,-0.006m197.954,-0.068c1.44,0.22 3.49,0.932 3.466,1.203c-0.006,0.072 -0.571,0.53 -1.255,1.018c-2.367,1.688 -2.141,2.702 0.536,2.402c2.362,-0.265 4.882,-0.17 6.698,0.255c1.667,0.389 1.753,0.389 4.978,0c3.803,-0.459 4.832,-0.314 7.09,0.996c1.759,1.021 2.627,1.258 3.981,1.089c0.988,-0.123 1.212,-0.084 1.6,0.281c1.674,1.572 5.967,1.296 5.967,-0.384c0,-0.578 0.022,-0.589 1.198,-0.59c0.659,0 2.319,-0.205 3.689,-0.454c2.875,-0.524 3.636,-0.465 5.806,0.448c3.191,1.343 3.587,1.457 5.656,1.623c1.385,0.11 2.783,0.387 4.119,0.815c3.18,1.019 4.673,1.006 9.874,-0.084c0.373,-0.078 0.469,0.029 0.586,0.658c0.191,1.017 0.954,1.746 1.823,1.742c1.248,-0.006 1.371,-0.258 0.887,-1.82c-0.287,-0.927 4.929,-0.5 10.737,0.878c2.12,0.503 4.792,1.122 5.938,1.376c3.493,0.773 3.896,0.995 1.835,1.013c-1.09,0.009 -1.763,0.105 -1.861,0.265c-0.434,0.702 0.118,2.657 1.161,4.114c0.342,0.478 0.427,0.74 0.259,0.796c-0.138,0.046 -0.79,0.479 -1.448,0.962c-1.493,1.097 -1.791,1.21 -2.488,0.945c-0.459,-0.174 -0.668,-0.131 -1.17,0.24c-0.52,0.384 -0.781,0.432 -1.74,0.32c-2.532,-0.298 -2.808,1.329 -0.656,3.867c1.524,1.797 1.869,2.635 1.251,3.045c-0.512,0.34 -0.615,1.401 -0.239,2.478c0.119,0.342 0.189,1.504 0.156,2.583l-0.06,1.962l-0.573,-1.462c-0.766,-1.957 -1.456,-2.735 -3.573,-4.034c-2.686,-1.647 -3.473,-3.055 -1.952,-3.491c2.771,-0.795 1.656,-7.575 -1.245,-7.575c-0.95,0 -1.44,0.424 -1.639,1.42c-0.164,0.819 -0.204,0.819 -1.322,-0.004c-1.828,-1.344 -4.204,-0.286 -2.955,1.316c1.386,1.779 1.301,2.122 -0.552,2.216c-1.905,0.097 -2.206,0.178 -2.937,0.794l-0.635,0.533l-2.536,-0.437c-7.814,-1.349 -10.563,1.479 -6.076,6.253l1.241,1.32l1.186,-0.373c1.784,-0.562 3.672,0.116 3.672,1.319c0,0.819 0.63,1.309 1.587,1.233c0.728,-0.058 0.913,-0.005 0.913,0.261c0,0.184 0.197,0.512 0.438,0.73c1.159,1.05 1.281,2.106 0.948,8.21c-0.278,5.094 -0.143,4.867 -3.043,5.097c-3.185,0.251 -4.499,2.586 -2.467,4.382c0.389,0.344 0.965,1.071 1.279,1.616c0.315,0.545 0.943,1.381 1.396,1.857c0.974,1.024 0.974,1.025 0.246,2.361c-1.09,1.999 -2.486,1.3 -3.621,-1.812c-0.246,-0.675 -0.621,-1.321 -0.833,-1.434c-0.212,-0.114 -0.615,-0.66 -0.896,-1.214c-1.014,-2.001 -2.97,-2.762 -4.338,-1.686c-0.98,0.771 -1.606,0.385 -1.806,-1.112c-0.33,-2.469 -3.97,-0.401 -3.97,2.256c0,0.916 1.883,1.526 4.824,1.563c0.075,0.001 0.041,0.313 -0.075,0.694c-0.293,0.954 0.412,2.374 2.451,4.932c4.646,5.831 4.263,10.182 -1.364,15.489c-1.615,1.524 -2.037,1.691 -4.812,1.905c-2.716,0.209 -2.765,0.253 -2.946,2.596c-0.177,2.303 -0.246,2.407 -1.385,2.101c-1.046,-0.282 -1.056,-0.413 -0.13,-1.674c1.527,-2.081 -0.142,-3.592 -2.59,-2.343c-2.484,1.266 -2.08,3.815 1.232,7.76c1.935,2.303 2.959,4.218 3.088,5.771c0.152,1.83 0.007,2.076 -1.684,2.85c-1.095,0.5 -1.659,0.906 -2.07,1.488c-0.501,0.711 -0.581,0.755 -0.714,0.398c-0.398,-1.076 -1.184,-1.993 -2.11,-2.462c-0.689,-0.349 -1.102,-0.733 -1.351,-1.255c-1.413,-2.963 -4.514,-2.086 -4.276,1.21l0.09,1.242l-0.934,-1.027c-1.332,-1.466 -1.742,-2.522 -1.851,-4.768c-0.161,-3.345 -1.636,-4.361 -4.555,-3.141c-1.482,0.619 -1.957,-0.103 -2.183,-3.316c-0.312,-4.42 -1.154,-5.678 -3.222,-4.814c-1.028,0.429 -1.617,0.408 -2.6,-0.093c-1.661,-0.847 -2.775,-0.285 -3.94,1.988c-1.088,2.125 -3.172,4.545 -4.944,5.741c-2.432,1.641 -2.951,3.059 -2.053,5.604c0.547,1.55 0.173,3.684 -0.73,4.168c-0.203,0.108 -0.433,0.457 -0.512,0.775c-0.339,1.355 -1.746,1.776 -2.711,0.81c-0.799,-0.798 -1.348,-3.418 -1.355,-6.468c-0.006,-2.145 -0.441,-3.052 -2.21,-4.605c-1.739,-1.526 -1.925,-1.922 -2.071,-4.398c-0.209,-3.561 -0.409,-4.006 -1.485,-3.301c-0.47,0.308 -0.504,0.298 -0.697,-0.209c-0.275,-0.724 -0.736,-0.854 -1.589,-0.447c-1.475,0.704 -1.974,0.344 -3.013,-2.173c-1.328,-3.216 -2.399,-3.638 -5.778,-2.276c-3.231,1.303 -4.979,0.916 -7.948,-1.76c-2.098,-1.89 -2.494,-2.077 -4.313,-2.029c-1.695,0.045 -1.662,0.067 -4.076,-2.716c-1.721,-1.984 -3.113,-2.293 -4.03,-0.894c-0.875,1.335 0.733,6.007 2.043,5.935c0.376,-0.02 0.798,-0.028 0.938,-0.016c0.363,0.03 0.891,1.138 0.891,1.871c0,1.824 2.072,1.69 4.784,-0.31c1.917,-1.413 2.091,-1.421 2.091,-0.086c0,1.505 0.5,2.536 1.814,3.74c1.812,1.659 1.547,2.621 -1.443,5.243c-0.949,0.831 -2.161,2.005 -2.693,2.608c-1.619,1.834 -2.287,2.305 -6.147,4.333c-5.853,3.075 -6.499,2.994 -7.356,-0.93c-0.473,-2.171 -0.757,-2.704 -2.823,-5.302c-1.805,-2.269 -2.088,-2.737 -3.315,-5.476c-0.527,-1.179 -1.702,-3.241 -2.609,-4.584c-4.676,-6.917 -4.771,-7.187 -3.884,-11.098c1.113,-4.903 0.818,-6.71 -0.926,-5.68c-0.575,0.34 -0.616,0.333 -1.425,-0.227c-1.366,-0.947 -2.247,-1.04 -4.134,-0.437c-2.594,0.828 -3.505,0.554 -4.725,-1.42c-1.432,-2.316 -0.695,-4.025 1.632,-3.786c1.208,0.125 1.345,0.088 3.138,-0.835c2.179,-1.122 2.78,-1.151 5.232,-0.249c4.919,1.81 8.512,0.789 7.484,-2.126c-0.298,-0.844 -0.296,-0.855 0.157,-0.753c0.788,0.176 7.308,1.199 7.83,1.227c0.804,0.044 0.983,-0.498 0.548,-1.664c-0.54,-1.449 -0.519,-2.646 0.056,-3.259c0.855,-0.909 0.558,-2.298 -0.719,-3.363c-3.147,-2.627 -0.468,-5.03 3.939,-3.533c1.946,0.661 3.056,0.414 4.062,-0.906l0.561,-0.735l0.084,-4.507c0.156,-8.326 0.236,-7.733 -1.355,-10.061c-0.823,-1.204 -0.976,-1.583 -0.989,-2.452l-0.015,-1.028l2.012,-1.941c2.259,-2.179 2.823,-3.239 2.217,-4.171c-1.311,-2.015 -0.809,-4.124 0.98,-4.124c1.082,0 1.116,0.072 1.026,2.193c-0.229,5.452 -0.107,5.986 1.484,6.521c3.961,1.333 5.026,-3.975 1.161,-5.785c-1.46,-0.684 -1.422,-1.47 0.07,-1.47c0.575,0 1.039,-0.499 0.872,-0.935c-0.168,-0.438 0.498,-0.406 2.124,0.104c2.632,0.825 3.639,0.14 2.838,-1.93c-0.09,-0.232 -0.043,-0.364 0.13,-0.364c0.149,0 1.214,-0.364 2.366,-0.809c1.616,-0.625 2.524,-0.842 3.97,-0.953c2.169,-0.166 3.105,-0.536 3.476,-1.373c0.224,-0.508 0.403,-0.608 1.206,-0.672c2.241,-0.181 8.279,-0.133 9.653,0.077m-176.509,1.031c0.329,0.234 0.884,0.712 1.233,1.06l0.634,0.634l1.742,-0.145c1.755,-0.146 2.824,-0.005 2.49,0.329c-0.629,0.629 -6.81,0.363 -7.57,-0.324c-1.291,-1.169 0.039,-2.574 1.471,-1.554m-14.18,0.176c0,0.102 -0.324,0.223 -0.719,0.269c-0.57,0.067 -0.673,0.028 -0.495,-0.185c0.252,-0.304 1.214,-0.37 1.214,-0.084m150.833,-0.104c0,0.045 -0.679,0.246 -1.51,0.447c-0.831,0.202 -2.003,0.582 -2.606,0.845c-0.982,0.43 -1.074,0.441 -0.893,0.102c0.329,-0.615 5.009,-1.918 5.009,-1.394m-143.541,0.335c0,0.251 -1.188,0.251 -1.771,0c-0.306,-0.131 -0.126,-0.183 0.677,-0.194c0.601,-0.008 1.094,0.079 1.094,0.194m213.555,0.216c0.222,0.118 0.403,0.306 0.403,0.416c0,0.259 -2.645,0.265 -2.805,0.006c-0.319,-0.518 1.595,-0.854 2.402,-0.422m-198.868,3.117c0.129,0.405 0.291,0.472 1.74,0.715c0.405,0.068 1.275,0.577 2.069,1.211c0.753,0.603 1.657,1.295 2.009,1.539c0.601,0.417 0.641,0.525 0.641,1.771l0,1.327l2.13,0.116c2.395,0.131 2.583,0.203 1.831,0.696c-0.984,0.645 -2.367,0.764 -3.695,0.317c-2.689,-0.903 -3.939,0.021 -2.558,1.892c0.977,1.324 0.498,1.695 -1.804,1.398c-2.821,-0.364 -3.254,0.192 -1.517,1.948c0.681,0.688 1.083,1.244 0.955,1.322c-0.477,0.295 -1.31,-0.183 -2.465,-1.413c-0.666,-0.71 -1.425,-1.428 -1.687,-1.596c-0.976,-0.626 -0.723,-1.45 0.578,-1.88c2.186,-0.723 2.796,-3.411 0.678,-2.987c-0.579,0.116 -0.645,0.071 -0.778,-0.532c-0.636,-2.896 -3.173,-3.008 -7.268,-0.321l-0.6,0.394l0.339,-0.656c0.545,-1.053 0.034,-2.344 -0.925,-2.344c-0.794,0 -0.093,-2.117 0.863,-2.612c1.295,-0.67 1.557,-0.393 0.628,0.662c-1.9,2.158 -0.748,2.595 1.857,0.704c2.325,-1.687 6.646,-2.722 6.979,-1.671m200.054,0.052c-0.144,0.258 -0.279,0.502 -0.3,0.542c-0.021,0.04 -0.137,0.012 -0.257,-0.062c-0.277,-0.171 0.177,-0.948 0.555,-0.948c0.213,0 0.213,0.091 0.002,0.468m-78.157,0.07c-0.069,0.181 -0.126,0.743 -0.126,1.25c0,1.031 -0.344,1.197 -1.215,0.587c-0.649,-0.454 -0.51,-1.106 0.36,-1.691c0.829,-0.557 1.158,-0.606 0.981,-0.146m-157.459,0.089c0.843,0.109 1.662,0.338 1.838,0.514c0.435,0.435 1.002,0.397 1.915,-0.128l0.773,-0.445l1.062,0.653c1.31,0.806 2.186,0.849 2.749,0.133c0.623,-0.792 0.819,-0.638 0.727,0.573c-0.196,2.579 -0.293,2.702 -2.312,2.933c-1.611,0.184 -2.804,1.428 -2.071,2.16c0.417,0.417 2.453,0.716 3.274,0.48c0.439,-0.125 0.674,-0.092 0.851,0.121c0.488,0.589 2.352,0.268 3.231,-0.555c0.43,-0.403 0.437,-0.403 0.814,0.014c1.201,1.327 3.896,-0.478 3.583,-2.402c-0.122,-0.753 0.425,-1.422 1.677,-2.054l0.673,-0.34l-0.133,0.976c-0.124,0.902 -0.088,1.013 0.472,1.46c0.569,0.455 0.606,0.577 0.606,1.997c0,1.388 0.037,1.517 0.447,1.576c0.246,0.035 0.495,0.244 0.553,0.464c0.057,0.221 0.593,0.705 1.19,1.076l1.086,0.675l-0.805,0.355c-0.442,0.196 -1.114,0.363 -1.493,0.371l-0.689,0.016l0.064,-1.191c0.074,-1.386 -0.336,-1.691 -1.193,-0.887c-0.373,0.351 -0.878,0.501 -2.117,0.629c-1.963,0.202 -2.784,0.53 -4.96,1.98c-2.035,1.357 -2.055,1.374 -3.279,2.833c-0.544,0.648 -1.493,1.462 -2.111,1.811c-1.935,1.092 -2.597,3.223 -1.381,4.44c0.344,0.344 0.625,0.747 0.625,0.896c0,0.393 0.387,0.621 1.555,0.916c1.213,0.307 1.457,0.485 2.134,1.557c0.49,0.776 0.542,0.801 1.586,0.758c1.938,-0.079 1.88,-0.116 1.371,0.883c-2.133,4.181 -1.567,5.91 1.554,4.743c2.352,-0.88 3.298,-1.916 3.568,-3.911c0.179,-1.326 0.545,-1.715 2.06,-2.192c2.27,-0.716 2.961,-1.722 2.753,-4.012l-0.136,-1.503l0.721,-0.445c0.569,-0.352 0.841,-0.762 1.293,-1.948c1.248,-3.274 4.002,-3.732 6.009,-0.998c0.419,0.571 1.043,1.275 1.386,1.564c0.602,0.505 0.615,0.555 0.375,1.357c-0.331,1.104 -0.036,1.47 1.182,1.47c1.472,0 2.928,-0.406 3.848,-1.072c1.182,-0.856 1.658,-0.487 1.658,1.286c0,1.944 0.171,2.378 1.475,3.744c1.456,1.526 2.022,3.75 0.953,3.75c-0.15,0 -0.483,0.224 -0.74,0.498c-0.632,0.673 -1.713,0.92 -4.924,1.124c-2.121,0.135 -2.923,0.272 -3.66,0.629c-0.519,0.252 -1.313,0.458 -1.764,0.458c-0.452,0.001 -1.126,0.188 -1.503,0.418c-1.276,0.778 -1.267,2.079 0.014,2.084c1.288,0.006 1.642,0.199 1.505,0.823c-0.333,1.517 0.344,2.7 1.561,2.724c0.688,0.013 0.66,0.04 -0.521,0.481c-0.688,0.256 -1.765,0.814 -2.393,1.239c-1.381,0.933 -1.568,0.958 -1.154,0.157c0.759,-1.468 0.103,-2.199 -1.534,-1.708c-1.204,0.36 -2.422,1.27 -5.143,3.841c-1.577,1.49 -3.005,2.638 -3.825,3.075c-0.72,0.384 -1.604,1.065 -1.964,1.513c-1.562,1.948 -2.047,2.394 -2.996,2.753c-1.699,0.644 -2.445,1.252 -4.252,3.471c-1.501,1.841 -2.077,2.365 -4.021,3.657c-3.282,2.181 -4.281,3.419 -4.281,5.304l0,0.792l-0.885,-0.004c-0.487,-0.002 -1.542,-0.245 -2.344,-0.538c-4.532,-1.658 -4.55,-1.658 -6.14,-0.069c-1.064,1.064 -2.851,1.675 -4.011,1.372c-3.015,-0.788 -7.282,1.408 -9.234,4.754c-1.383,2.37 -0.604,11.144 1.115,12.549c1.267,1.037 6.19,0.351 7.494,-1.043c0.45,-0.481 1.251,-1.344 1.782,-1.916l0.964,-1.042l0.005,0.916c0.003,0.702 -0.221,1.331 -0.961,2.687c-1.211,2.222 -1.29,3.092 -0.366,4.016c0.874,0.873 2.109,1.043 3.186,0.438c0.65,-0.365 0.907,-0.405 1.524,-0.234c1.175,0.324 1.247,0.527 0.897,2.511c-0.427,2.412 -0.397,4.054 0.094,5.135c0.221,0.487 0.361,0.885 0.311,0.885c-0.179,0 -2.783,-1.652 -4.218,-2.676c-2.077,-1.482 -2.974,-1.892 -4.86,-2.224c-2.031,-0.357 -1.96,-0.312 -2.236,-1.407c-0.385,-1.531 -1.344,-2.385 -3.066,-2.732c-0.809,-0.163 -1.84,-0.451 -2.292,-0.64c-0.452,-0.189 -2.077,-0.666 -3.611,-1.06c-4.103,-1.052 -4.604,-1.533 -4.608,-4.431c-0.005,-2.653 -0.582,-4.233 -2.604,-7.122c-1.484,-2.12 -3.117,-5.444 -3.973,-8.087c-0.912,-2.812 -1.613,-3.579 -3.273,-3.579c-0.771,0 -0.958,-0.465 -1.301,-3.229c-0.201,-1.614 -0.688,-3.173 -1.491,-4.767c-1.139,-2.261 -0.854,-3.381 1.753,-6.908c3.097,-4.188 4.044,-7.551 2.764,-9.819l-0.627,-1.111l0.481,0c1.206,0 1.376,-2.597 0.227,-3.472c-0.277,-0.211 -0.222,-0.382 0.426,-1.325c1.122,-1.631 1.034,-1.924 -0.784,-2.605c-1.695,-0.634 -1.78,-1.625 -0.344,-4.006c2.97,-4.924 0.112,-6.51 -7.812,-4.335c-1.73,0.475 -3.165,0.743 -3.978,0.743c-1.849,0 -2.9,0.396 -5.431,2.043c-2.886,1.877 -3.081,1.924 -4.537,1.091c-0.632,-0.362 -1.737,-0.777 -2.457,-0.923c-2.707,-0.55 -0.954,-3.345 1.835,-2.926c2.434,0.365 4.878,-1.12 4.878,-2.964c0,-1.486 -0.627,-1.741 -2.95,-1.2c-0.932,0.217 -1.249,-0.665 -0.478,-1.328c0.647,-0.556 1.501,-0.563 3.852,-0.029c1.302,0.296 2.104,0.167 2.706,-0.436c0.305,-0.304 0.696,-0.412 1.505,-0.413c1.401,-0.003 2.703,-0.605 5.089,-2.354c4.14,-3.035 6.628,-3.724 8.98,-2.488c1.063,0.559 1.562,0.59 1.948,0.123c1.5,-1.818 6.767,-1.612 9.538,0.372c1.586,1.135 2.708,1.13 4.885,-0.024c1.688,-0.894 1.728,-0.895 3.358,-0.047c1.269,0.66 2.305,0.672 4.533,0.053c1.459,-0.406 1.797,-0.428 3.585,-0.228c1.086,0.121 2.54,0.22 3.232,0.22c0.896,0 1.259,0.078 1.259,0.272c0,1.599 4.048,3.04 6.562,2.336c0.688,-0.192 1.752,-0.477 2.365,-0.632c1.387,-0.35 1.352,-0.31 1.37,-1.555c0.023,-1.6 -0.426,-1.932 -2.572,-1.9l-1.696,0.024l-0.887,-0.913c-1.161,-1.194 -1.84,-1.336 -3.594,-0.752c-1.477,0.491 -1.66,0.466 -1.448,-0.2c0.381,-1.202 3.444,-1.743 7.15,-1.261m-3.188,3.208c0.771,1.011 1.672,1.373 3.417,1.373c1.884,0 1.875,0.255 -0.031,0.84c-2.763,0.848 -3.759,0.78 -5.313,-0.363c-0.756,-0.556 -0.818,-0.849 -0.367,-1.722c0.534,-1.034 1.559,-1.091 2.294,-0.128m138.334,0.439c1.375,0.286 3.905,0.659 5.623,0.83c6.562,0.651 8.338,3.146 2.169,3.047c-3.293,-0.052 -3.286,-0.059 -2.085,2.398c1.596,3.265 3.71,4.056 3.405,1.274c-0.126,-1.153 0.13,-1.283 0.767,-0.388c0.987,1.386 2.424,0.929 1.821,-0.579l-0.337,-0.842l1.371,-0.424c1.434,-0.443 2.995,-0.562 2.995,-0.229c0,0.857 1.447,0.311 3.646,-1.375c0.802,-0.615 1.645,-1.261 1.875,-1.436c0.711,-0.542 1.398,-0.593 3.152,-0.232c3.296,0.678 4.886,0.235 4.597,-1.279c-0.08,-0.419 -0.029,-0.472 0.349,-0.361c1.498,0.439 3.349,0.732 4.645,0.735c2.866,0.007 2.975,0.688 0.471,2.958c-3.323,3.014 -3.377,3.534 -0.961,9.309l0.729,1.743l-0.052,4.507c-0.068,5.895 -0.027,5.838 -3.666,5.131c-2.892,-0.562 -4.045,-0.391 -5.056,0.749c-2.11,2.377 -1.999,4.587 0.328,6.52l0.864,0.718l-0.484,1.032c-0.373,0.797 -0.451,1.221 -0.343,1.861l0.14,0.83l-2.565,-0.507c-1.888,-0.374 -2.929,-0.476 -3.941,-0.387c-1.427,0.124 -3.065,-0.262 -4.769,-1.124c-1.529,-0.773 -2.94,-0.669 -3.724,0.277c-0.427,0.514 -0.572,0.45 -1.925,-0.841c-2.158,-2.057 -4.642,-1.773 -4.896,0.561c-0.218,1.995 -0.332,2.338 -1.05,3.133c-1.066,1.179 -1.829,1.573 -3.823,1.973c-3.52,0.707 -3.988,1.837 -1.759,4.245c1.811,1.957 0.76,2.51 -2.151,1.133c-2.444,-1.155 -3.58,-2.925 -2.659,-4.142c0.788,-1.042 -1.06,-3.896 -3.167,-4.892c-0.745,-0.352 -1.835,-1.087 -2.423,-1.635c-1.474,-1.371 -1.995,-1.69 -2.755,-1.69c-0.826,0 -1.752,0.71 -1.752,1.345c0,0.465 -0.027,0.472 -0.782,0.212c-1.341,-0.462 -2.188,-0.084 -3.304,1.475c-0.403,0.564 -0.547,0.615 -1.77,0.637c-0.733,0.013 -1.454,0.037 -1.603,0.052c-0.149,0.016 -0.406,0.351 -0.571,0.746c-0.252,0.603 -0.504,0.792 -1.584,1.186c-1.695,0.618 -2.463,1.428 -3.287,3.473c-1.281,3.179 -3.323,4.61 -5.115,3.585c-1.369,-0.783 -1.839,-0.784 -3.788,-0.003c-2.479,0.993 -2.437,1.1 -1.517,-3.854c0.213,-1.146 0.451,-2.584 0.529,-3.195c0.183,-1.436 0.174,-1.434 3.798,-0.844c4.726,0.769 4.827,0.715 4.827,-2.568l0,-2.081l-0.708,-0.708c-0.409,-0.408 -0.918,-0.708 -1.204,-0.708c-1.621,0 -1.575,-0.995 0.047,-1.027c0.815,-0.016 1.24,-0.319 1.24,-0.884c0,-0.325 0.091,-0.307 0.769,0.154c0.827,0.561 1.288,0.588 1.519,0.09c0.079,-0.172 0.277,-0.587 0.439,-0.923c0.183,-0.38 0.862,-0.954 1.804,-1.525c0.928,-0.562 1.973,-1.442 2.709,-2.28c0.945,-1.076 1.509,-1.506 2.675,-2.041c1.768,-0.81 1.872,-1.021 1.407,-2.827c-0.412,-1.598 -0.212,-2.764 0.617,-3.593l0.457,-0.457l0.104,1.293c0.097,1.206 0.486,1.902 1.078,1.93c0.077,0.003 -0.134,0.28 -0.469,0.615c-1.642,1.642 0.259,3.139 2.527,1.99c0.973,-0.493 1.274,-0.549 2.342,-0.438c1.266,0.133 6.594,-0.339 7.823,-0.693c1.282,-0.368 1.646,-1.115 0.976,-2.001c-0.372,-0.492 -0.424,-2.502 -0.071,-2.72c0.137,-0.085 0.284,-0.048 0.327,0.081c0.514,1.544 2.577,2.406 2.879,1.203c0.356,-1.418 -0.258,-2.413 -1.604,-2.602c-0.453,-0.064 -0.819,-0.21 -0.813,-0.324c0.01,-0.207 0.672,-0.22 3.789,-0.075c2.427,0.113 3.513,-1.218 2.126,-2.605c-1.134,-1.133 -2.936,-1.178 -4.508,-0.113c-1.236,0.838 -1.716,0.791 -2.231,-0.22c-0.575,-1.127 -0.553,-1.257 0.528,-3.131c1.171,-2.03 1.355,-2.906 0.741,-3.521c-0.948,-0.947 -2.624,-0.354 -3.543,1.255c-0.463,0.811 -0.921,1.273 -1.732,1.748c-1.476,0.865 -1.685,1.479 -1.365,4.01c0.487,3.857 -2.23,8.097 -4.433,6.918c-0.362,-0.194 -0.386,-0.384 -0.268,-2.173l0.129,-1.96l-0.64,-0.64c-0.771,-0.771 -1.44,-0.815 -3.38,-0.223c-2.639,0.806 -4.583,0.445 -4.583,-0.852c0,-1.726 0.845,-2.541 3.021,-2.912c2.569,-0.437 3.897,-1.387 5.682,-4.061c0.464,-0.695 1.178,-1.519 1.588,-1.832c1.193,-0.909 1.531,-2.207 0.58,-2.224c-0.62,-0.011 0.131,-0.312 2.254,-0.902c5.4,-1.501 7.179,-1.641 10.938,-0.859m42.442,1.395c1.194,0.827 1.193,2.876 -0.002,2.869c-1.101,-0.006 -1.478,-0.69 -1.341,-2.431c0.093,-1.184 0.211,-1.222 1.343,-0.438m-145.844,0.093c0.367,0.332 0.358,0.36 -0.244,0.726c-1.141,0.694 -0.431,1.812 1.184,1.864l0.587,0.019l-0.632,0.183c-0.725,0.211 -1.556,0.916 -1.556,1.321c0,0.201 -0.394,0.277 -1.465,0.284c-1.841,0.012 -2.437,0.355 -2.622,1.511c-0.112,0.701 -0.211,0.83 -0.635,0.83c-1.627,0 -2.733,1.185 -3.814,4.087c-0.133,0.358 -0.465,0.752 -0.738,0.876c-0.943,0.43 -1.211,1.135 -1.051,2.764c0.179,1.815 -0.078,2.295 -1.489,2.789c-2.42,0.848 -3.016,1.453 -3.286,3.338c-0.194,1.352 -0.383,1.676 -1.315,2.26c-0.922,0.576 -2.127,1.016 -2.127,0.776c0,-0.341 0.59,-1.832 1.324,-3.344c0.958,-1.975 -0.041,-3.034 -2.421,-2.568c-0.488,0.096 -0.704,-0.031 -1.403,-0.825c-0.586,-0.666 -1.107,-1.021 -1.792,-1.223c-0.658,-0.194 -1.023,-0.435 -1.145,-0.757c-0.099,-0.26 -0.416,-0.562 -0.705,-0.672c-1.073,-0.408 -0.512,-1.48 1.42,-2.709c0.707,-0.45 1.493,-1.128 1.747,-1.507c1.227,-1.827 4.712,-4.207 6.481,-4.427c0.535,-0.067 1.285,-0.16 1.665,-0.208c0.613,-0.077 0.716,-0.017 0.907,0.531c0.374,1.072 1.994,1.379 3.693,0.699c0.753,-0.302 0.864,-0.3 1.344,0.014c1.268,0.831 2.483,-1.291 1.333,-2.328c-0.258,-0.232 -0.877,-0.661 -1.377,-0.952l-0.909,-0.529l0.596,-0.112c0.328,-0.062 0.966,-0.173 1.418,-0.247c0.854,-0.141 1.776,-0.59 4.073,-1.987c1.459,-0.887 2.344,-1.03 2.954,-0.477m119.337,0.899c0.22,0.139 0.246,0.261 0.089,0.418c-0.157,0.157 -0.333,0.099 -0.603,-0.199c-0.416,-0.459 -0.087,-0.599 0.514,-0.219m2.066,0.55c-0.305,0.367 -0.453,0.259 -0.276,-0.201c0.072,-0.188 0.219,-0.287 0.327,-0.22c0.118,0.073 0.097,0.242 -0.051,0.421m-70.814,1.471c-1.903,0.743 -1.11,3.178 1.145,3.516c2.915,0.437 7.769,-0.232 8.131,-1.121c0.75,-1.84 -0.143,-3.09 -1.638,-2.29c-0.405,0.217 -5.47,0.12 -6.805,-0.129c-0.286,-0.054 -0.661,-0.043 -0.833,0.024m60.833,0.995c0,0.052 -0.111,0.339 -0.247,0.637l-0.247,0.542l-0.266,-0.48c-0.38,-0.685 -0.347,-0.793 0.24,-0.793c0.286,0 0.52,0.042 0.52,0.094m-55.791,0.635c3.632,0 3.072,0.367 -0.736,0.482c-2.026,0.06 -3.134,0.012 -3.439,-0.151c-0.774,-0.414 -0.516,-0.645 0.539,-0.483c0.545,0.084 2.18,0.152 3.636,0.152m42.228,0.156c-0.134,0.258 -0.618,1.104 -1.075,1.88c-0.994,1.688 -0.997,2.687 -0.013,4.277c0.651,1.051 0.606,1.964 -0.14,2.856c-0.229,0.273 -0.313,0.895 -0.313,2.321c0,1.071 -0.047,1.948 -0.104,1.949c-0.142,0.003 -3.613,0.375 -4.896,0.526l-1.041,0.121l0.673,-0.5c2.114,-1.57 3.411,-4.986 3.038,-8c-0.272,-2.196 -0.306,-2.102 1.027,-2.877c0.757,-0.441 1.253,-0.933 1.681,-1.667c0.333,-0.573 0.713,-1.111 0.843,-1.195c0.44,-0.284 0.566,-0.162 0.32,0.309m-99.464,1.179c0.318,0.125 0.203,0.188 -0.512,0.284c-1.036,0.139 -1.63,-0.065 -0.834,-0.287c0.679,-0.189 0.855,-0.188 1.346,0.003m104.81,5.106c0.617,0.451 0.237,0.604 -1.089,0.439c-1.154,-0.144 -1.181,-0.161 -0.687,-0.435c0.669,-0.37 1.274,-0.371 1.776,-0.004m-16.916,3.831c-0.032,1.7 -0.075,1.802 -0.673,1.612c-0.727,-0.231 -0.553,-3.28 0.181,-3.195c0.506,0.059 0.52,0.106 0.492,1.583m-16.554,-0.297c0.362,0.436 1.479,3.876 1.479,4.554c0,0.946 0.562,1.785 1.515,2.263c2.009,1.009 2.204,1.529 0.725,1.932c-6.554,1.786 -6.529,1.793 -3.979,-0.975c1.643,-1.784 1.586,-3.089 -0.227,-5.129c-0.979,-1.104 -1.097,-1.479 -0.747,-2.398c0.223,-0.587 0.848,-0.712 1.234,-0.247m-3.186,3.998c0.291,1.162 -0.357,3.423 -0.982,3.423c-0.121,0 -0.881,0.332 -1.688,0.737c-0.808,0.405 -1.506,0.7 -1.551,0.655c-0.165,-0.166 0.196,-0.784 0.577,-0.988c0.535,-0.287 0.494,-1.111 -0.076,-1.534c-0.458,-0.339 -0.447,-0.344 0.44,-0.227c1.113,0.146 1.487,-0.121 1.487,-1.064c0,-1.301 1.506,-2.143 1.793,-1.002m2.582,1.405c0,0.519 -0.194,0.873 -0.807,1.472l-0.808,0.788l0.299,-1.111c0.164,-0.61 0.258,-1.574 0.208,-2.141l-0.089,-1.031l0.598,0.67c0.402,0.449 0.599,0.894 0.599,1.353m18.107,-1.446c-0.047,0.043 -0.415,0.235 -0.816,0.427l-0.729,0.349l0.492,-0.427c0.271,-0.235 0.638,-0.427 0.816,-0.427c0.178,0 0.285,0.035 0.237,0.078m148.226,3.938c2.886,2.987 4.566,5.497 3.995,5.971c-0.307,0.255 -0.267,0.31 -1.912,-2.612c-0.602,-1.07 -2.887,-3.208 -3.428,-3.208c-0.311,0 -0.405,-0.145 -0.405,-0.625c0,-0.937 0.525,-0.795 1.75,0.474m-309.875,-0.486c0,0.408 -0.352,0.771 -0.554,0.569c-0.163,-0.163 0.136,-0.974 0.36,-0.974c0.107,0 0.194,0.182 0.194,0.405m149.583,2.404c0,0.055 -0.366,0.286 -0.813,0.515c-0.448,0.228 -1.055,0.722 -1.349,1.098l-0.536,0.683l-0.657,-0.657l-0.658,-0.657l1.201,-0.249c0.661,-0.137 1.54,-0.374 1.955,-0.527c0.414,-0.152 0.777,-0.284 0.805,-0.292c0.029,-0.008 0.052,0.031 0.052,0.086m-65.043,2.243c1.047,1.831 1.182,2.522 0.512,2.618c-0.379,0.055 -0.469,-0.032 -0.469,-0.455c0,-0.784 -0.254,-0.828 -2.514,-0.431c-2.728,0.479 -2.948,-0.063 -0.666,-1.642c0.527,-0.364 1.201,-0.87 1.497,-1.125c0.729,-0.626 0.667,-0.665 1.64,1.035m79.146,7.098c0.665,0.609 1.444,1.271 1.731,1.471l0.521,0.364l-0.834,-0.145c-1.383,-0.24 -2.367,-0.912 -2.936,-2.006c-0.627,-1.205 0,-1.075 1.518,0.316m22.258,-0.059c1.587,1.61 2.632,1.765 4.078,0.602l0.542,-0.437l1.497,0.637c0.823,0.351 1.845,0.734 2.27,0.852c0.987,0.273 1.933,2.061 1.348,2.547c-0.652,0.54 -3.079,0.298 -5.574,-0.556c-2.96,-1.013 -3.932,-0.964 -6.305,0.317c-1.29,0.697 -1.764,0.856 -2.22,0.741l-0.578,-0.145l0.94,-1.005c0.99,-1.059 1.388,-2.053 1.39,-3.474c0.002,-1.593 1.089,-1.626 2.612,-0.079m-26.313,0.774c0.176,0.2 0.619,0.9 0.985,1.554c0.764,1.369 1.68,2.241 3.121,2.971c2.029,1.028 2.238,1.718 1.038,3.42c-1.156,1.639 -1.107,2.391 0.161,2.483c1.739,0.126 2.737,-0.959 3.075,-3.345c0.156,-1.104 0.616,-1.343 0.802,-0.416c0.416,2.071 3.647,4.292 6.662,4.579c1.461,0.14 1.707,0.361 0.43,0.389c-2.864,0.062 -1.431,2.073 1.882,2.64c2.791,0.478 4.534,-1.217 2.106,-2.048c-1.167,-0.399 -2.423,-1.88 -2.134,-2.515c0.201,-0.441 0.239,-0.419 0.861,0.512c1.494,2.235 3.183,2.742 6.037,1.811c1.74,-0.569 1.981,-0.539 3.378,0.409c0.589,0.401 1.013,0.535 1.508,0.477l0.688,-0.08l-0.141,0.845c-0.077,0.465 -0.343,1.75 -0.59,2.856l-0.45,2.011l-0.514,-0.285c-0.789,-0.436 -2.619,-0.346 -4.567,0.226c-2.771,0.813 -3.414,0.736 -5.431,-0.644c-3.615,-2.476 -6.241,-2.306 -6.828,0.442c-0.25,1.171 -0.894,1.078 -3.481,-0.503c-1.964,-1.2 -2.202,-1.289 -4.166,-1.567c-3.553,-0.501 -3.923,-0.858 -3.565,-3.443c0.385,-2.791 -0.562,-3.472 -4.769,-3.428c-2.994,0.032 -3.687,0.182 -8.334,1.808c-4.364,1.527 -5.836,1.571 -5.969,0.177l-0.077,-0.803l0.919,0.489c2.148,1.142 5.028,-0.861 6.624,-4.608c0.843,-1.978 0.781,-1.919 3.031,-2.933c0.704,-0.318 1.33,-0.768 1.525,-1.099c0.296,-0.5 0.456,-0.56 1.514,-0.568c1.353,-0.011 2.038,-0.37 2.779,-1.46c0.553,-0.811 1.356,-0.961 1.89,-0.354m156.871,-0.134c-1.528,0.451 -1.761,2.065 -0.507,3.53c0.408,0.477 0.952,1.469 1.209,2.204l0.467,1.336l-0.895,1.049c-0.959,1.124 -1.151,1.696 -1.151,3.436c0,1.571 -0.471,2.035 -3.132,3.087c-2.586,1.022 -3.12,1.594 -3.115,3.335c0.009,2.95 1.869,3.431 3.838,0.993c1.247,-1.543 2.094,-2.095 4.822,-3.142c2.707,-1.038 3.088,-1.663 3.061,-5.017c-0.022,-2.726 -0.424,-4.148 -1.607,-5.698l-0.681,-0.893l0.466,-0.542c0.257,-0.299 0.735,-0.574 1.064,-0.611c0.494,-0.057 0.607,-0.177 0.659,-0.705c0.153,-1.571 -2.484,-2.956 -4.498,-2.362m1.426,1.696c0.485,0.581 0.501,0.86 0.069,1.218c-0.29,0.241 -0.405,0.199 -0.833,-0.298c-0.589,-0.685 -0.635,-1.114 -0.133,-1.245c0.201,-0.052 0.397,-0.106 0.436,-0.119c0.039,-0.013 0.246,0.187 0.461,0.444m-152.199,0.993c1.718,0.254 3.007,0.679 3.249,1.07c0.249,0.403 -0.045,1.046 -0.412,0.9c-0.894,-0.354 -1.685,-0.357 -1.819,-0.006c-0.118,0.307 -0.22,0.273 -0.785,-0.258c-0.357,-0.335 -1.137,-0.87 -1.733,-1.187c-0.595,-0.317 -1.294,-0.802 -1.553,-1.078l-0.471,-0.501l0.929,0.406c0.511,0.224 1.679,0.518 2.595,0.654m-8.688,0.56c-1.577,1.772 -0.68,5.062 1.379,5.062c1.649,0 1.952,-2.128 0.508,-3.572c-0.267,-0.267 -0.469,-0.734 -0.477,-1.102c-0.016,-0.776 -0.859,-1.008 -1.41,-0.388m20.723,2.51c-0.088,0.315 -0.149,1.038 -0.137,1.607l0.023,1.034l-1.132,-1.217c-1.221,-1.312 -1.217,-1.465 0.048,-1.761c1.335,-0.312 1.377,-0.301 1.198,0.337m-19.639,0.243c0,0.106 0.055,0.363 0.121,0.573c0.111,0.349 0.093,0.347 -0.208,-0.023c-0.378,-0.463 -0.423,-0.741 -0.121,-0.741c0.114,0 0.208,0.086 0.208,0.191m135.89,2.067c-1.095,0.259 -1.506,-0.282 -0.849,-1.118l0.459,-0.582l0.344,0.815c0.293,0.692 0.3,0.825 0.046,0.885m25.587,1.31c0.439,3.464 0.025,4.368 -2.374,5.171c-2.26,0.757 -3.688,1.689 -4.908,3.202c-1.224,1.518 -1.487,1.578 -1.487,0.338c0,-1.089 0.39,-1.438 2.404,-2.161c2.976,-1.066 3.597,-1.778 3.836,-4.396c0.154,-1.699 0.206,-1.84 0.911,-2.525c0.411,-0.4 0.808,-0.917 0.881,-1.149c0.231,-0.727 0.531,-0.109 0.737,1.52m-161.256,1.774l0.855,0.342l-0.155,1.273c-0.429,3.527 0.4,4.436 4.581,5.024c1.68,0.236 2.263,0.417 3.125,0.969c3.967,2.539 5.932,2.643 6.301,0.334c0.287,-1.797 1.754,-1.826 4.338,-0.086c2.825,1.901 3.597,2.025 6.776,1.084c2.895,-0.856 5,-0.339 5,1.228c0,0.189 0.142,0.62 0.317,0.957c0.419,0.812 0.203,1.594 -0.55,1.983c-1.228,0.635 -0.829,1.891 1.584,4.988c0.715,0.917 1.751,2.511 2.303,3.542c1.404,2.623 1.905,3.317 4.113,5.702c1.17,1.263 2.303,2.742 2.849,3.718c3.568,6.381 6.021,7.907 10.665,6.634c5.04,-1.381 5.095,0.09 0.185,4.883c-2.941,2.87 -4.627,5.094 -7.702,10.161c-6.171,10.171 -6.326,10.684 -4.889,16.219c1.351,5.206 0.912,6.834 -2.942,10.911c-3.423,3.621 -4.168,5.248 -4.101,8.959c0.066,3.654 0.03,3.789 -1.233,4.6c-1.4,0.898 -1.929,1.783 -2.45,4.097c-0.599,2.66 -1.248,3.836 -3.134,5.678c-2.715,2.65 -3.722,2.996 -9.39,3.223c-5,0.2 -5.384,-0.195 -6.426,-6.587c-0.681,-4.185 -0.783,-4.45 -3.881,-10.074c-3.432,-6.231 -3.517,-7.082 -1.295,-12.916c2.109,-5.54 2.078,-7.298 -0.178,-9.921c-1.554,-1.807 -1.865,-2.636 -2.889,-7.705c-1.85,-9.156 -3.244,-11.059 -9.29,-12.684c-3.264,-0.877 -5.376,-0.647 -10.898,1.187c-4.87,1.617 -6.563,1.36 -9.362,-1.418c-2.405,-2.387 -3.363,-5.041 -4.424,-12.264c-0.311,-2.116 -0.836,-5.069 -1.166,-6.563c-1.189,-5.37 -0.697,-6.658 4.057,-10.621c4.051,-3.376 4.739,-4.372 5.746,-8.31c0.974,-3.809 1.366,-4.486 3.209,-5.541c0.617,-0.353 1.239,-0.782 1.381,-0.953c0.288,-0.347 1.041,-0.425 1.041,-0.109c0,1.371 3.464,1.038 8.784,-0.843c4.042,-1.43 7.333,-1.826 9.145,-1.101m53.878,12.588c1.879,2.244 2.434,2.571 4.137,2.434c0.73,-0.058 1.372,-0.061 1.427,-0.006c0.14,0.139 -2.46,2.107 -3.112,2.355c-0.712,0.271 -0.718,0.269 -0.718,-0.221c0,-1.235 -1.533,-2.906 -2.668,-2.908c-0.708,-0.001 -1.763,-2.553 -1.422,-3.441c0.202,-0.525 0.802,-0.07 2.356,1.787m-211.013,-0.581c0.121,0.146 0.278,0.779 0.348,1.406l0.126,1.141l-0.4,-0.729c-0.738,-1.343 -0.793,-2.684 -0.074,-1.818m41.591,4.73c-0.259,1.645 -0.59,0.094 -0.392,-1.835l0.163,-1.598l0.188,1.246c0.104,0.685 0.122,1.669 0.041,2.187m149.196,-1.299c0.551,0.889 1.46,2.249 2.02,3.023c0.559,0.774 1.487,2.456 2.06,3.738c0.574,1.282 1.365,2.852 1.759,3.488l0.715,1.159l-1.411,-1.507c-0.971,-1.036 -1.858,-2.312 -2.84,-4.086c-0.785,-1.418 -1.934,-3.214 -2.552,-3.99c-0.619,-0.777 -1.321,-1.729 -1.56,-2.116l-0.435,-0.704l0.486,-0.394c0.614,-0.497 0.566,-0.535 1.758,1.389m-187.68,5.052c0.101,0.673 0.082,0.705 -0.235,0.405c-0.203,-0.192 -0.384,-0.786 -0.444,-1.458l-0.101,-1.133l0.336,0.728c0.184,0.4 0.384,1.056 0.444,1.458m32.354,-0.841c-1.462,0.371 -1.991,2.243 -0.772,2.732c0.021,0.008 1.569,0.137 3.441,0.287l3.404,0.271l0.971,0.954c1.168,1.147 2.117,1.574 3.609,1.623l1.118,0.036l-0.076,0.798c-0.183,1.912 1.774,2.533 5.175,1.641c0.859,-0.225 1.949,-0.411 2.422,-0.413c0.753,-0.003 0.892,-0.079 1.113,-0.613c0.345,-0.833 0.112,-1.474 -0.536,-1.474c-0.283,0 -0.722,-0.131 -0.975,-0.293c-1.099,-0.697 -5.03,-0.979 -6.243,-0.447c-0.302,0.133 -0.365,0.052 -0.365,-0.47c0,-0.942 -0.199,-1.29 -0.739,-1.29c-0.267,0 -0.551,-0.104 -0.629,-0.232c-0.259,-0.418 -1.981,-1.059 -2.498,-0.929c-0.397,0.1 -0.556,0.007 -0.801,-0.466c-0.168,-0.325 -0.434,-0.697 -0.591,-0.828c-0.817,-0.678 -5.513,-1.27 -7.028,-0.887m3.536,1.468c0.676,0.129 0.413,0.146 -0.937,0.064c-1.031,-0.063 -1.914,-0.15 -1.962,-0.194c-0.159,-0.145 1.949,-0.05 2.899,0.13m5.844,2.401c0.338,0.174 0.615,0.357 0.615,0.405c0,0.151 -1.244,-0.337 -1.367,-0.536c-0.167,-0.27 0.051,-0.232 0.752,0.131m240.097,0.955c-0.403,0.586 -0.74,1.172 -0.75,1.302c-0.01,0.13 -0.098,-0.03 -0.196,-0.356c-0.305,-1.018 0.329,-1.988 1.311,-2.005c0.303,-0.005 0.238,0.183 -0.365,1.059m-232.399,1.631c0.495,0.146 0.479,0.166 -0.312,0.409c-2.199,0.673 -4.662,0.375 -3.416,-0.415c0.345,-0.218 2.984,-0.214 3.728,0.006m249.125,0.585c-1.697,1.814 -1.626,2.746 0.405,5.321c1.002,1.27 1.393,2.708 1.177,4.333c-0.251,1.896 1.516,1.834 2.003,-0.07c0.433,-1.688 0.549,-1.763 1.24,-0.794c0.24,0.337 0.621,0.671 0.847,0.743c0.44,0.14 0.56,0.82 0.185,1.051c-0.125,0.077 -0.331,0.036 -0.458,-0.091c-0.961,-0.961 -3.066,0.532 -3.066,2.174c0,1.991 1.733,2.847 4.238,2.093c0.533,-0.16 0.926,-0.221 0.873,-0.135c-0.053,0.087 -0.851,0.372 -1.772,0.634c-1.925,0.548 -2.626,1.092 -2.833,2.198c-0.336,1.787 0.43,2.326 2.068,1.455c1.126,-0.598 1.297,-0.565 1.485,0.288c0.32,1.457 2.645,1.865 2.777,0.488c0.052,-0.535 0.161,-0.679 0.521,-0.684c1.981,-0.029 1.857,-3.565 -0.179,-5.12c-0.166,-0.128 -0.303,-0.56 -0.303,-0.962c0,-1.602 -0.396,-2.957 -1.034,-3.538c-0.341,-0.311 -0.529,-0.621 -0.418,-0.69c0.111,-0.068 0.202,-0.433 0.202,-0.809c0,-1.119 -0.742,-1.567 -3.541,-2.141c-2.261,-0.464 -2.677,-1.008 -1.459,-1.909c1.075,-0.795 0.906,-1.838 -0.53,-3.262c-1.309,-1.298 -1.669,-1.383 -2.428,-0.573m-259.064,-0.127c-2.263,0.631 -1.325,3.516 1.156,3.55c1.726,0.024 2.694,-1.6 1.764,-2.96c-0.58,-0.847 -1.401,-1.013 -2.92,-0.59m15.082,0.391c-0.826,0.248 -1.185,0.597 -1.185,1.151c0,1.925 2.742,2.47 3.644,0.725c0.835,-1.615 -0.34,-2.512 -2.459,-1.876m-13.459,1.038c0.332,0 0.207,0.394 -0.193,0.608c-0.28,0.15 -0.517,0.114 -0.87,-0.134c-0.52,-0.364 -0.081,-0.781 0.594,-0.563c0.153,0.049 0.363,0.089 0.469,0.089m259.554,1.133c-0.006,0.122 -0.283,0.436 -0.615,0.698l-0.603,0.476l-0.352,-0.537c-0.621,-0.947 -0.115,-1.668 0.848,-1.209c0.404,0.192 0.729,0.45 0.722,0.572m-242.471,-0.424c-0.463,0.558 -0.076,1.199 0.678,1.126c0.579,-0.056 0.659,-0.14 0.659,-0.689c0,-0.72 -0.867,-1.004 -1.337,-0.437m138.854,1.697c0.305,0.52 0.517,0.984 0.471,1.03c-0.045,0.046 -0.343,-0.381 -0.662,-0.947c-0.727,-1.293 -0.561,-1.366 0.191,-0.083m-136.504,0.408c-0.173,0.449 0.324,1.354 0.741,1.35c1.126,-0.011 1.189,-1.517 0.068,-1.625c-0.478,-0.046 -0.717,0.035 -0.809,0.275m-11.512,7.013c1.499,0.926 2.792,0.924 4.915,-0.004c2.799,-1.225 3.763,-0.822 5.695,2.376c1.112,1.84 2.388,3.12 3.299,3.309c0.302,0.063 1.362,0.204 2.357,0.313c3.819,0.42 5.561,2.143 6.404,6.337c0.648,3.221 1.348,4.016 4.439,5.046c1.476,0.491 1.855,0.728 3.036,1.898c1.878,1.859 2.517,2.138 5.649,2.467c3.065,0.322 3.475,0.455 4.888,1.58c3.765,2.997 3.748,6.384 -0.057,11.707c-2.569,3.593 -2.593,3.672 -2.727,8.894c-0.163,6.384 -0.805,7.529 -4.609,8.216c-3.416,0.617 -4.352,1.383 -4.352,3.558c0,0.755 -0.239,1.47 -1.035,3.094c-0.704,1.435 -1.144,2.679 -1.374,3.882c-0.873,4.561 -1.038,4.784 -3.581,4.813c-3.772,0.043 -4.151,1.447 -0.843,3.123c1.034,0.524 1.206,0.699 1.328,1.349c0.233,1.243 -0.263,1.385 -3.906,1.115c-1.529,-0.113 -2.309,0.391 -2.464,1.594c-0.118,0.908 -0.384,1.098 -2.377,1.698c-2.156,0.649 -2.582,1.951 -1.36,4.157c0.832,1.502 0.763,1.941 -0.537,3.405c-1.475,1.66 -0.912,3.25 1.395,3.941c0.907,0.272 1.092,0.694 0.904,2.061c-0.446,3.243 1.609,6.703 4.996,8.413c1.532,0.773 1.469,0.713 1.15,1.097c-0.828,0.998 -3.078,0.23 -4.9,-1.672c-1.1,-1.147 -1.436,-1.363 -2.794,-1.792c-1.484,-0.469 -2.031,-0.847 -3.076,-2.124c-0.262,-0.319 -0.665,-0.553 -0.953,-0.553c-1.002,0 -1.725,-1.203 -2.139,-3.561c-0.208,-1.184 -0.542,-2.121 -1.141,-3.207l-0.847,-1.534l-0.2,-3.609c-0.109,-1.985 -0.294,-3.984 -0.409,-4.443c-0.116,-0.458 -0.35,-3.25 -0.519,-6.204c-0.169,-2.953 -0.4,-6.375 -0.512,-7.604c-0.112,-1.228 -0.262,-3.593 -0.333,-5.254c-0.122,-2.847 -1.27,-11.305 -1.75,-12.9c-0.557,-1.85 -1.983,-3.115 -4.861,-4.31c-2.881,-1.197 -3.554,-1.932 -5.776,-6.311c-0.947,-1.868 -1.845,-3.304 -2.619,-4.192c-1.95,-2.235 -2.127,-2.53 -2.695,-4.477c-1.158,-3.964 -0.786,-5.68 1.763,-8.138c2.431,-2.345 2.402,-2.271 2.402,-6.235l0,-3.333l1.292,-2.188c2.882,-4.879 3.125,-5.164 4.612,-5.402c0.501,-0.08 0.829,-0.273 0.957,-0.562c0.453,-1.027 1.412,-0.978 3.265,0.166m248.034,-0.521c-0.211,0.211 -0.166,1.278 0.06,1.418c0.266,0.164 0.073,0.634 -0.761,1.856c-0.873,1.28 -1.05,1.939 -0.634,2.355c1.06,1.06 3.884,-1.519 3.9,-3.56c0.007,-1.006 -2.005,-2.629 -2.565,-2.069m9.07,0.892c0.05,0.337 0.014,0.566 -0.08,0.508c-0.167,-0.103 -0.249,-1.122 -0.09,-1.122c0.044,0 0.121,0.276 0.17,0.614m-2.049,1.024c0.773,0.792 0.778,0.807 0.303,0.935c-1.269,0.34 -2.046,0.035 -2.046,-0.802c0,-1.123 0.723,-1.177 1.743,-0.133m-55.059,3.602c0.593,1.11 -0.114,2.736 -1.146,2.635l-0.642,-0.063l0.011,-1.461c0.017,-2.258 0.875,-2.795 1.777,-1.111m58.889,0.072c0.684,1.056 0.511,1.645 -0.329,1.12c-0.587,-0.366 -1.039,-0.089 -1.129,0.691l-0.08,0.689l-0.269,-0.681c-0.292,-0.741 -0.76,-1.082 -1.513,-1.103c-0.265,-0.007 0.17,-0.231 0.968,-0.498c0.798,-0.266 1.486,-0.588 1.528,-0.716c0.128,-0.384 0.332,-0.261 0.824,0.498m-271.511,-0.312c-0.581,0.249 -1.354,0.249 -1.354,0c0,-0.115 0.398,-0.202 0.885,-0.194c0.686,0.011 0.792,0.055 0.469,0.194m239.778,2.884c1.046,0.751 1.371,1.27 1.785,2.845c0.151,0.573 0.54,1.577 0.866,2.232c0.582,1.173 0.585,1.195 0.171,1.416c-0.546,0.292 -2.713,-1.549 -3.303,-2.807c-0.678,-1.448 -1.484,-4.262 -1.482,-5.175l0.002,-0.874l0.502,0.838c0.277,0.461 0.933,1.147 1.459,1.525m20.784,0.998c0.742,0.514 1.012,0.909 0.622,0.909c-0.671,0 -1.184,1.81 -1.184,4.179c0,2.323 -0.02,2.432 -0.573,3.089c-0.773,0.919 -0.865,1.419 -0.576,3.132c0.396,2.344 -0.216,2.704 -2.695,1.584c-1.033,-0.467 -2.208,-0.809 -3.261,-0.95c-4.374,-0.587 -3.726,-4.393 1.012,-5.941c2.484,-0.812 3.303,-1.51 3.91,-3.333c0.297,-0.893 0.559,-1.333 0.839,-1.406c0.241,-0.063 0.407,-0.285 0.407,-0.545c0,-1.184 0.488,-1.418 1.499,-0.718m7.964,4.955c-0.353,0.153 -0.927,0.626 -1.277,1.05c-0.611,0.742 -0.672,0.765 -1.596,0.627c-2.025,-0.304 -3.755,3.486 -2.847,6.236c0.211,0.639 0.198,0.906 -0.078,1.596c-0.495,1.236 -0.441,3.003 0.108,3.552c0.833,0.833 2.514,0.172 2.849,-1.119l0.158,-0.609l0.517,0.8c0.444,0.689 0.636,0.809 1.383,0.864c2.251,0.164 2.486,-2.504 0.397,-4.528l-0.718,-0.696l0.646,-0.804c0.483,-0.601 0.651,-1.028 0.664,-1.691l0.018,-0.886l-1.164,0.004c-1.16,0.003 -1.163,0.002 -0.687,-0.373c0.451,-0.355 0.535,-0.356 1.527,-0.032c2.018,0.66 3.553,-0.133 3.553,-1.835c0,-1.848 -1.709,-2.916 -3.453,-2.156m5.327,0.288c-0.255,0.207 -0.497,0.605 -0.538,0.886c-0.041,0.28 -0.134,0.894 -0.207,1.364c-0.101,0.646 -0.021,1.104 0.327,1.875c0.857,1.897 0.868,2.069 0.19,2.922c-1.764,2.22 -0.446,3.332 2.437,2.057c0.648,-0.287 1.389,-0.521 1.647,-0.521c1.428,0 1.111,-1.173 -0.568,-2.1c-1.626,-0.898 -1.913,-1.656 -1.22,-3.223c1.013,-2.29 -0.439,-4.579 -2.068,-3.26m-34.478,0.429l1.042,0.342l0.052,1.77c0.078,2.655 0.102,2.709 1.176,2.709c0.5,0 1.225,0.131 1.611,0.291c0.386,0.16 1.432,0.408 2.323,0.55c1.922,0.308 2.333,0.624 0.607,0.468c-1.767,-0.16 -1.913,0.047 -1.765,2.513c0.127,2.131 0.072,2.247 -0.939,1.972c-0.867,-0.235 -1.346,-1.004 -2.046,-3.291c-0.586,-1.913 -1.24,-2.742 -3.227,-4.092c-1.031,-0.699 -1.23,-1.174 -1.23,-2.933l0,-0.928l0.677,0.144c0.373,0.079 1.146,0.298 1.719,0.485m30.743,0.661c0.542,0.29 0.531,1.174 -0.017,1.348c-0.466,0.148 -1.872,-0.245 -1.872,-0.523c0,-0.596 1.275,-1.153 1.889,-0.825m4.568,1.184c-0.226,0.352 -0.232,0.352 -0.118,-0.01c0.066,-0.21 0.131,-0.538 0.144,-0.729c0.022,-0.313 0.033,-0.312 0.118,0.01c0.052,0.197 -0.013,0.525 -0.144,0.729m4.668,0.977c-2.033,0.9 -2.066,3.119 -0.059,3.958c0.89,0.372 1.047,0.562 1.527,1.86c0.524,1.42 1.284,1.866 2.938,1.727c1.232,-0.104 1.281,-0.088 2.245,0.736c1.753,1.499 1.864,2.339 0.463,3.501c-1.563,1.298 1.937,2.989 3.705,1.79l0.751,-0.51l0.968,0.541c1.406,0.786 2.176,0.548 3.383,-1.043c1.307,-1.722 1.727,-1.637 2.886,0.585c1.429,2.741 2.685,3.386 4.548,2.335c1.133,-0.64 1.235,-1.388 0.271,-1.984c-1.128,-0.699 -1.748,-1.484 -2.991,-3.789c-1.593,-2.955 -4.419,-5.417 -6.219,-5.417c-0.183,0 -0.332,-0.095 -0.332,-0.211c0,-0.117 -0.328,-0.369 -0.729,-0.56c-0.402,-0.191 -0.73,-0.456 -0.73,-0.589c0,-0.582 -0.782,-0.98 -1.497,-0.761c-0.38,0.116 -1.511,0.256 -2.515,0.31c-1.974,0.107 -2.71,0.416 -3.116,1.307c-0.31,0.678 -0.563,0.561 -0.956,-0.442c-0.178,-0.454 -0.565,-1.191 -0.859,-1.639c-0.295,-0.448 -0.684,-1.057 -0.864,-1.354c-0.393,-0.646 -1.768,-0.817 -2.818,-0.351m2.197,2.194c0.314,0.337 0.778,1.18 1.031,1.873c0.797,2.185 2.537,2.338 3.685,0.325c0.209,-0.368 4.072,-0.84 4.376,-0.536c0.732,0.734 -0.455,8.01 -1.391,8.535c-0.884,0.495 -1.366,0.174 -0.843,-0.56c1.572,-2.207 -1.293,-6.093 -4.257,-5.776c-1.486,0.159 -1.822,-0.045 -2.164,-1.315c-0.238,-0.885 -1.041,-1.715 -2.04,-2.108c-0.8,-0.316 -0.885,-0.633 -0.168,-0.633c0.279,0 0.566,-0.094 0.637,-0.209c0.216,-0.35 0.536,-0.236 1.134,0.404m-16.846,0.346c0.274,0.331 1,0.319 1.962,-0.033c0.283,-0.104 0.161,0.116 -0.384,0.688c-0.914,0.959 -0.886,1.13 0.38,2.345c1.284,1.232 1.879,2.5 1.172,2.5c-0.088,0 -0.524,-0.663 -0.969,-1.474c-0.837,-1.527 -1.323,-1.968 -1.979,-1.796c-0.447,0.117 -0.824,-0.737 -0.824,-1.865c0,-0.762 0.212,-0.883 0.642,-0.365m39.149,0.04c-1.151,0.356 -1.688,1.87 -1.184,3.334c0.276,0.799 0.27,0.874 -0.076,0.984c-1.548,0.491 -2.318,2.713 -1.284,3.704c1.616,1.548 3.619,0.696 6.306,-2.681c1.553,-1.951 1.325,-2.589 -0.923,-2.589l-1.146,0l-0.144,-0.99c-0.224,-1.542 -0.659,-2.038 -1.549,-1.762m-28.125,1.71c0,0.115 -0.039,0.209 -0.087,0.209c-0.048,0 -0.236,0.057 -0.419,0.127c-0.243,0.093 -0.297,0.037 -0.203,-0.208c0.14,-0.365 0.709,-0.467 0.709,-0.128m19.125,2.087c2.005,1.004 2.561,1.6 3.886,4.166c0.557,1.077 1.432,2.408 1.946,2.957c0.523,0.56 0.804,0.999 0.639,0.999c-0.618,0 -1.243,-0.7 -1.917,-2.147c-1.41,-3.028 -3.309,-3.349 -5.142,-0.868c-0.943,1.276 -1.109,1.335 -1.919,0.67l-0.571,-0.468l0.303,-1.666c0.166,-0.917 0.306,-2.3 0.31,-3.073c0.009,-1.729 0.104,-1.751 2.465,-0.57m-30.61,1.571c-0.391,0.938 -0.522,-0.129 -0.153,-1.253l0.276,-0.842l0.066,0.741c0.037,0.407 -0.048,1.017 -0.189,1.354m41.93,-0.572c-1.297,1.822 -3.096,2.899 -3.744,2.241c-0.459,-0.466 0.472,-1.354 1.969,-1.876c0.56,-0.195 1.252,-0.48 1.539,-0.634c0.286,-0.153 0.55,-0.287 0.587,-0.298c0.036,-0.01 -0.122,0.245 -0.351,0.567m4.694,1.845c-0.347,0.347 -0.12,1.825 0.38,2.481c1.279,1.677 3.896,1.179 2.666,-0.508c-0.22,-0.302 -0.461,-0.714 -0.536,-0.914c-0.079,-0.212 -0.351,-0.365 -0.649,-0.365c-0.33,0 -0.56,-0.148 -0.645,-0.416c-0.129,-0.405 -0.91,-0.583 -1.216,-0.278m4.966,1.902c-1.622,0.326 -1.881,2.75 -0.38,3.549c0.859,0.458 1.594,-0.404 1.491,-1.749c-0.026,-0.343 0.018,-0.73 0.098,-0.859c0.363,-0.586 -0.323,-1.119 -1.209,-0.941m-24.431,4.261c-0.785,0.968 -1.407,4.776 -1.24,7.586c0.134,2.249 -0.285,2.701 -1.531,1.653c-0.371,-0.312 -1.004,-0.568 -1.602,-0.648c-1.399,-0.187 -1.448,-0.213 -1.834,-0.96c-0.326,-0.629 -0.325,-0.709 0.015,-1.284c1.096,-1.856 0.422,-4.265 -1.32,-4.714c-4.594,-1.184 -6.837,-0.395 -8.433,2.967c-1.334,2.811 -1.817,3.054 -2.116,1.063c-0.543,-3.625 -3.37,-2.291 -5.54,2.614c-1.376,3.112 -1.871,3.581 -4.688,4.451c-4.313,1.331 -5.429,2.038 -6.769,4.295c-0.99,1.667 -1.25,1.924 -3.061,3.029c-2.258,1.379 -2.958,3.374 -2.594,7.396c0.231,2.555 -0.172,7.676 -0.716,9.101c-0.983,2.574 2.649,2.103 7.187,-0.933c2.233,-1.493 2.779,-1.754 5.574,-2.657c1.704,-0.551 3.282,-1.125 3.506,-1.275c0.355,-0.238 0.477,-0.207 0.942,0.238c0.324,0.311 1.248,0.719 2.358,1.04c2.464,0.714 3.232,1.27 4.491,3.247c1.143,1.797 2.081,2.552 3.013,2.427c0.5,-0.067 0.644,0.036 0.982,0.699c0.823,1.614 3.278,2.975 6.208,3.444l0.855,0.137l-0.67,0.45c-0.832,0.559 -1.025,1.474 -0.355,1.687c0.282,0.089 0.578,0.019 0.811,-0.191c0.201,-0.182 0.427,-0.271 0.5,-0.198c0.305,0.305 -1.288,0.908 -1.842,0.698c-1.444,-0.549 -2.409,0.028 -2.787,1.669c-0.969,4.21 1.196,5.95 3.926,3.155c2.617,-2.677 3.249,-5.494 1.527,-6.803c-0.193,-0.147 0.445,-0.215 2.093,-0.222c3.511,-0.015 4.022,-0.389 6.568,-4.801c0.619,-1.075 1.522,-2.121 3.268,-3.789c5.808,-5.545 6.805,-9.339 3.665,-13.94c-1.956,-2.865 -4.072,-8.089 -5.302,-13.092c-1.198,-4.869 -1.562,-5.704 -3.001,-6.876c-1.161,-0.946 -1.716,-1.122 -2.088,-0.663m2.252,3.091c0.221,0.433 0.88,2.692 1.463,5.02c1.115,4.443 3.087,9.53 4.732,12.206c0.403,0.656 1.048,1.704 1.432,2.327c1.86,3.023 0.677,6.126 -4.116,10.794c-1.987,1.934 -2.954,3.052 -3.562,4.114c-2.418,4.228 -3.049,4.585 -7.224,4.077c-4.089,-0.497 -6.198,-1.495 -7.325,-3.466c-0.752,-1.313 -1.041,-1.498 -1.8,-1.153c-0.692,0.315 -0.873,0.158 -2.194,-1.902c-1.409,-2.197 -2.387,-2.846 -5.578,-3.702c-0.514,-0.137 -1.244,-0.522 -1.622,-0.854c-0.775,-0.68 -1.145,-0.736 -1.988,-0.296c-0.322,0.168 -2.031,0.786 -3.798,1.375c-2.905,0.967 -3.463,1.236 -5.828,2.81c-2.986,1.988 -4.891,2.736 -4.595,1.803c0.381,-1.199 0.691,-6.677 0.499,-8.799c-0.344,-3.803 0.181,-5.203 2.427,-6.471c1.334,-0.752 1.86,-1.303 2.934,-3.072c1.078,-1.776 2.211,-2.552 4.963,-3.399c4.323,-1.33 4.953,-1.85 6.587,-5.436c1.768,-3.88 2.535,-4.605 2.919,-2.758c0.701,3.376 2.876,2.98 4.711,-0.857c1.292,-2.7 1.293,-2.7 4.188,-2.649c3.429,0.06 4.365,1.097 2.793,3.095c-1.134,1.442 0.643,3.883 3.078,4.23c0.791,0.113 0.969,0.219 1.026,0.616c0.099,0.694 0.505,0.761 2.197,0.363c2.166,-0.51 2.089,-0.412 1.786,-2.287c-0.281,-1.742 -0.177,-4.613 0.225,-6.206c0.294,-1.166 0.923,-0.987 1.67,0.477m-124.509,-0.487c-1.207,3.026 -2.689,4.532 -5.188,5.274c-3.256,0.967 -3.735,3.329 -2.303,11.341c0.287,1.604 0.524,3.543 0.527,4.309c0.012,3.042 1.158,3.528 3.314,1.406c2.326,-2.29 3.75,-6.578 5.016,-15.108c0.239,-1.615 0.527,-3.255 0.639,-3.645c0.268,-0.936 0.261,-3.445 -0.012,-3.955c-0.415,-0.775 -1.624,-0.546 -1.993,0.378m0.569,3.261c-0.13,0.513 -0.425,2.224 -0.657,3.803c-1.097,7.464 -2.582,12.193 -4.397,14l-0.911,0.907l-0.055,-1.116c-0.031,-0.613 -0.344,-2.896 -0.695,-5.073c-1.16,-7.184 -0.911,-8.454 1.815,-9.254c1.966,-0.577 4.873,-3.106 4.873,-4.24c0,-0.122 0.059,-0.163 0.131,-0.091c0.072,0.072 0.025,0.551 -0.104,1.064m152.985,-0.358c-0.791,0.791 0.025,2.936 1.544,4.052c0.574,0.423 0.86,0.792 0.86,1.111c0,0.614 0.489,1.016 1.027,0.845c0.752,-0.238 1.266,-1.124 1.258,-2.168c-0.019,-2.462 -3.344,-5.185 -4.689,-3.84m2.484,2.358c0.724,0.801 0.874,1.041 0.65,1.041c-0.194,0 -1.771,-1.506 -1.771,-1.691c0,-0.383 0.394,-0.155 1.121,0.65m-2.033,6.358c-0.686,0.686 -0.212,1.658 0.744,1.522c0.41,-0.058 0.48,-0.19 0.48,-0.901c0,-0.946 -0.597,-1.249 -1.224,-0.621m-1.509,20.914c-0.868,0.53 -1.099,1.3 -1.251,4.168c-0.174,3.298 -0.507,3.891 -2.796,4.968c-1.029,0.484 -1.656,0.902 -1.657,1.105c0,0.179 -0.72,0.788 -1.6,1.354c-7.445,4.787 -11.086,8.117 -9.529,8.715c1.885,0.723 4.122,-0.372 6.932,-3.394c2.211,-2.377 4.01,-3.58 6.593,-4.409c0.572,-0.184 1.557,-0.665 2.187,-1.07c0.63,-0.404 1.889,-1.078 2.798,-1.497c3.356,-1.547 5.431,-4.466 3.321,-4.672c-0.588,-0.057 -0.666,-0.147 -0.789,-0.918c-0.076,-0.471 -0.46,-1.38 -0.853,-2.02c-0.394,-0.641 -0.819,-1.46 -0.943,-1.821c-0.334,-0.965 -1.322,-1.174 -2.413,-0.509m1.896,2.684c0.716,1.208 0.829,1.568 0.833,2.648c0.004,1.136 0.047,1.256 0.473,1.316c1.015,0.145 0.214,0.839 -2.379,2.062c-0.898,0.423 -2.119,1.078 -2.715,1.456c-0.596,0.378 -1.182,0.687 -1.302,0.687c-0.474,0 -0.155,-0.342 0.876,-0.938c1.798,-1.04 2.288,-2.074 2.471,-5.217c0.233,-3.988 0.434,-4.221 1.743,-2.014m-40.071,9.007c0.504,0.14 0.941,0.141 1.302,0.004c0.713,-0.272 0.686,-0.053 -0.144,1.152c-1.739,2.523 -2.752,2.658 -2.56,0.341c0.153,-1.842 0.155,-1.844 1.402,-1.497m25.997,5.536c-0.565,0.603 -2.24,1.648 -2.395,1.493c-0.093,-0.093 2.579,-2.034 2.8,-2.034c0.055,0 -0.128,0.243 -0.405,0.541m-272.352,7.599c-1.741,1.369 0.757,3.987 2.774,2.907c0.554,-0.297 1.294,-1.652 1.15,-2.106c-0.382,-1.205 -2.787,-1.696 -3.924,-0.801m2.159,1.353c0,0.231 -0.162,0.307 -0.557,0.26c-0.811,-0.096 -0.882,-0.586 -0.085,-0.586c0.444,0 0.642,0.1 0.642,0.326" id="path0"/>
  </g>
 </g>
</svg>